<svg width="713" height="529" viewBox="0 0 713 529" fill="none" xmlns="http://www.w3.org/2000/svg">
<path d="M47.325 347.42C48.21 347.42 48.885 347.75 49.35 348.395C49.83 349.04 50.07 349.865 50.07 350.855C50.07 351.83 49.83 352.64 49.35 353.285C48.885 353.93 48.21 354.245 47.325 354.245H45.21V347.42H47.325ZM47.325 356C48.765 356 49.905 355.52 50.73 354.56C51.57 353.585 51.99 352.355 51.99 350.855C51.99 349.34 51.57 348.11 50.73 347.135C49.905 346.16 48.765 345.665 47.325 345.665H43.29V356H47.325ZM60.4198 352.475C60.4198 351.395 60.0748 350.525 59.3998 349.85C58.7248 349.175 57.8848 348.845 56.8648 348.845C55.8448 348.845 54.9898 349.175 54.2848 349.85C53.5798 350.525 53.2348 351.395 53.2348 352.475C53.2348 353.555 53.5798 354.44 54.2848 355.13C54.9898 355.805 55.8448 356.15 56.8648 356.15C58.2598 356.15 59.5348 355.595 60.1348 354.455L58.7398 353.705C58.4248 354.29 57.7198 354.605 56.9848 354.605C55.9498 354.605 55.1698 354.02 55.0498 353.105H60.3898C60.4048 352.88 60.4198 352.67 60.4198 352.475ZM55.0348 351.86C55.1698 350.945 55.9048 350.375 56.8798 350.375C57.7948 350.375 58.4998 350.915 58.6348 351.86H55.0348ZM68.9808 356V345.185H67.1658V349.925C66.7908 349.25 65.9208 348.845 64.9608 348.845C64.0158 348.845 63.2058 349.19 62.5308 349.865C61.8558 350.54 61.5258 351.41 61.5258 352.505C61.5258 353.585 61.8558 354.47 62.5308 355.145C63.2058 355.82 64.0158 356.15 64.9608 356.15C65.9058 356.15 66.7908 355.73 67.1658 355.055V356H68.9808ZM65.2608 350.585C65.7558 350.585 66.1908 350.765 66.5658 351.11C66.9408 351.455 67.1358 351.905 67.1358 352.475C67.1358 353.045 66.9558 353.51 66.5808 353.87C66.2208 354.215 65.7858 354.395 65.2608 354.395C64.7358 354.395 64.3008 354.215 63.9408 353.87C63.5958 353.51 63.4158 353.045 63.4158 352.475C63.4158 351.35 64.2258 350.585 65.2608 350.585ZM71.0575 348.995V356H72.8725V348.995H71.0575ZM71.9725 347.39C72.6175 347.39 73.1275 346.895 73.1275 346.28C73.1275 345.665 72.6175 345.185 71.9725 345.185C71.3275 345.185 70.7875 345.665 70.7875 346.28C70.7875 346.895 71.3125 347.39 71.9725 347.39ZM78.2693 348.845C77.2343 348.845 76.3343 349.19 75.5993 349.865C74.8643 350.54 74.4893 351.41 74.4893 352.475C74.4893 353.54 74.8643 354.425 75.5993 355.115C76.3343 355.805 77.2343 356.15 78.2693 356.15C79.4543 356.15 80.5343 355.655 81.1943 354.77L79.7243 353.69C79.3793 354.155 78.8993 354.395 78.2693 354.395C77.7443 354.395 77.2793 354.215 76.8893 353.855C76.4993 353.48 76.3043 353.03 76.3043 352.475C76.3043 351.92 76.4993 351.485 76.8893 351.14C77.2793 350.795 77.7443 350.615 78.2693 350.615C78.8993 350.615 79.3793 350.84 79.7243 351.305L81.1793 350.21C80.5193 349.355 79.4543 348.845 78.2693 348.845ZM89.7697 356V348.995H87.9397V349.865C87.4747 349.16 86.5447 348.845 85.7647 348.845C84.7897 348.845 83.9497 349.19 83.2447 349.865C82.5397 350.54 82.1947 351.41 82.1947 352.49C82.1947 353.57 82.5547 354.455 83.2597 355.13C83.9647 355.805 84.8047 356.135 85.7647 356.135C86.5447 356.135 87.5197 355.76 87.9397 355.1V356H89.7697ZM87.9397 352.49C88.0147 354.23 85.7647 354.965 84.6547 353.855C84.2797 353.495 84.0847 353.045 84.0847 352.49C84.0847 351.935 84.2797 351.485 84.6547 351.14C85.0447 350.78 85.4947 350.6 86.0197 350.6C86.5297 350.6 86.9797 350.765 87.3547 351.11C87.7447 351.455 87.9397 351.905 87.9397 352.49ZM92.4286 346.325V348.995H91.1536V350.465H92.4286V356H94.2436V350.465H95.7286V348.995H94.2436V346.325H92.4286ZM103.764 352.475C103.764 351.395 103.419 350.525 102.744 349.85C102.069 349.175 101.229 348.845 100.209 348.845C99.1895 348.845 98.3345 349.175 97.6295 349.85C96.9245 350.525 96.5795 351.395 96.5795 352.475C96.5795 353.555 96.9245 354.44 97.6295 355.13C98.3345 355.805 99.1895 356.15 100.209 356.15C101.604 356.15 102.879 355.595 103.479 354.455L102.084 353.705C101.769 354.29 101.064 354.605 100.329 354.605C99.2945 354.605 98.5145 354.02 98.3945 353.105H103.734C103.749 352.88 103.764 352.67 103.764 352.475ZM98.3795 351.86C98.5145 350.945 99.2495 350.375 100.224 350.375C101.139 350.375 101.844 350.915 101.979 351.86H98.3795ZM112.326 356V345.185H110.511V349.925C110.136 349.25 109.266 348.845 108.306 348.845C107.361 348.845 106.551 349.19 105.876 349.865C105.201 350.54 104.871 351.41 104.871 352.505C104.871 353.585 105.201 354.47 105.876 355.145C106.551 355.82 107.361 356.15 108.306 356.15C109.251 356.15 110.136 355.73 110.511 355.055V356H112.326ZM108.606 350.585C109.101 350.585 109.536 350.765 109.911 351.11C110.286 351.455 110.481 351.905 110.481 352.475C110.481 353.045 110.301 353.51 109.926 353.87C109.566 354.215 109.131 354.395 108.606 354.395C108.081 354.395 107.646 354.215 107.286 353.87C106.941 353.51 106.761 353.045 106.761 352.475C106.761 351.35 107.571 350.585 108.606 350.585ZM119.953 353.525C119.953 351.545 120.538 350.555 121.708 350.555C122.128 350.555 122.488 350.615 122.773 350.75L123.088 349.1C122.773 348.935 122.383 348.845 121.933 348.845C121.078 348.845 120.298 349.445 119.953 350.645V348.995H118.123V356H119.953V353.525ZM130.893 352.475C130.893 351.395 130.548 350.525 129.873 349.85C129.198 349.175 128.358 348.845 127.338 348.845C126.318 348.845 125.463 349.175 124.758 349.85C124.053 350.525 123.708 351.395 123.708 352.475C123.708 353.555 124.053 354.44 124.758 355.13C125.463 355.805 126.318 356.15 127.338 356.15C128.733 356.15 130.008 355.595 130.608 354.455L129.213 353.705C128.898 354.29 128.193 354.605 127.458 354.605C126.423 354.605 125.643 354.02 125.523 353.105H130.863C130.878 352.88 130.893 352.67 130.893 352.475ZM125.508 351.86C125.643 350.945 126.378 350.375 127.353 350.375C128.268 350.375 128.973 350.915 129.108 351.86H125.508ZM137.699 352.49C137.699 353.06 137.504 353.525 137.114 353.885C136.739 354.23 136.289 354.41 135.794 354.41C134.729 354.41 133.904 353.63 133.904 352.49C133.904 351.395 134.759 350.6 135.794 350.6C136.859 350.6 137.699 351.335 137.699 352.49ZM132.269 357.425C132.884 358.7 134.159 359.495 135.614 359.495C138.119 359.495 139.529 358.04 139.529 354.995V348.995H137.744V349.94C137.369 349.265 136.454 348.845 135.509 348.845C134.564 348.845 133.739 349.19 133.034 349.865C132.344 350.54 131.999 351.425 131.999 352.52C131.999 353.585 132.344 354.47 133.034 355.145C133.739 355.82 134.564 356.15 135.509 356.15C136.469 356.15 137.399 355.715 137.744 355.04C137.864 356.675 137.249 357.83 135.614 357.83C134.849 357.83 134.054 357.35 133.754 356.675L132.269 357.425ZM141.604 348.995V356H143.419V348.995H141.604ZM142.519 347.39C143.164 347.39 143.674 346.895 143.674 346.28C143.674 345.665 143.164 345.185 142.519 345.185C141.874 345.185 141.334 345.665 141.334 346.28C141.334 346.895 141.859 347.39 142.519 347.39ZM148.141 353.315C148.681 353.435 148.921 353.63 148.906 353.975C148.906 354.38 148.516 354.665 147.991 354.68C147.331 354.695 146.746 354.29 146.701 353.795H144.991C145.006 354.515 145.291 355.085 145.846 355.52C146.416 355.94 147.076 356.15 147.811 356.15C148.591 356.15 149.266 355.955 149.821 355.58C150.391 355.205 150.676 354.665 150.676 353.99C150.676 353.435 150.451 352.31 148.846 351.89L147.676 351.605C147.181 351.47 146.941 351.275 146.941 351.02C146.941 350.555 147.241 350.33 147.826 350.33C148.306 350.33 148.756 350.57 148.771 351.05H150.511C150.481 350.3 150.196 349.745 149.671 349.385C149.146 349.025 148.516 348.845 147.781 348.845C147.076 348.845 146.476 349.055 145.966 349.475C145.456 349.88 145.201 350.375 145.201 350.93C145.201 351.77 145.381 352.565 147.181 353.075L148.141 353.315ZM152.883 346.325V348.995H151.608V350.465H152.883V356H154.698V350.465H156.183V348.995H154.698V346.325H152.883ZM159.386 353.525C159.386 351.545 159.971 350.555 161.141 350.555C161.561 350.555 161.921 350.615 162.206 350.75L162.521 349.1C162.206 348.935 161.816 348.845 161.366 348.845C160.511 348.845 159.731 349.445 159.386 350.645V348.995H157.556V356H159.386V353.525ZM170.717 356V348.995H168.887V349.865C168.422 349.16 167.492 348.845 166.712 348.845C165.737 348.845 164.897 349.19 164.192 349.865C163.487 350.54 163.142 351.41 163.142 352.49C163.142 353.57 163.502 354.455 164.207 355.13C164.912 355.805 165.752 356.135 166.712 356.135C167.492 356.135 168.467 355.76 168.887 355.1V356H170.717ZM168.887 352.49C168.962 354.23 166.712 354.965 165.602 353.855C165.227 353.495 165.032 353.045 165.032 352.49C165.032 351.935 165.227 351.485 165.602 351.14C165.992 350.78 166.442 350.6 166.967 350.6C167.477 350.6 167.927 350.765 168.302 351.11C168.692 351.455 168.887 351.905 168.887 352.49ZM173.376 346.325V348.995H172.101V350.465H173.376V356H175.191V350.465H176.676V348.995H175.191V346.325H173.376ZM178.05 348.995V356H179.865V348.995H178.05ZM178.965 347.39C179.61 347.39 180.12 346.895 180.12 346.28C180.12 345.665 179.61 345.185 178.965 345.185C178.32 345.185 177.78 345.665 177.78 346.28C177.78 346.895 178.305 347.39 178.965 347.39ZM186.971 352.475C186.971 353.6 186.176 354.35 185.141 354.35C184.106 354.35 183.311 353.6 183.311 352.475C183.311 351.395 184.106 350.645 185.141 350.645C186.176 350.645 186.971 351.395 186.971 352.475ZM187.721 355.115C188.426 354.44 188.786 353.555 188.786 352.475C188.786 351.395 188.426 350.525 187.721 349.85C187.016 349.175 186.161 348.845 185.141 348.845C184.121 348.845 183.251 349.175 182.546 349.85C181.841 350.525 181.496 351.395 181.496 352.475C181.496 353.555 181.841 354.44 182.546 355.115C183.251 355.79 184.121 356.135 185.141 356.135C186.161 356.135 187.016 355.79 187.721 355.115ZM192.258 352.265C192.258 351.125 192.888 350.63 193.788 350.63C194.613 350.63 195.123 351.185 195.123 352.19V356H196.953V351.86C196.953 349.895 196.008 348.845 194.343 348.845C193.503 348.845 192.633 349.31 192.258 350.03V348.995H190.428V356H192.258V352.265ZM204.489 356V345.185H202.659V356H204.489ZM206.556 348.995V356H208.371V348.995H206.556ZM207.471 347.39C208.116 347.39 208.626 346.895 208.626 346.28C208.626 345.665 208.116 345.185 207.471 345.185C206.826 345.185 206.286 345.665 206.286 346.28C206.286 346.895 206.811 347.39 207.471 347.39ZM212.267 352.265C212.267 351.125 212.897 350.63 213.797 350.63C214.622 350.63 215.132 351.185 215.132 352.19V356H216.962V351.86C216.962 349.895 216.017 348.845 214.352 348.845C213.512 348.845 212.642 349.31 212.267 350.03V348.995H210.437V356H212.267V352.265ZM225.698 356L222.128 352.07L225.068 348.995H222.698L220.763 351.095V345.185H218.948V356H220.763V353L223.403 356H225.698Z" fill="#333333" fill-opacity="0.5"/>
<path d="M274.143 488.395C273.123 488.395 272.283 487.615 272.283 486.475C272.283 485.905 272.463 485.455 272.838 485.11C273.213 484.765 273.648 484.585 274.143 484.585C275.178 484.585 275.988 485.35 275.988 486.475C275.988 487.615 275.178 488.395 274.143 488.395ZM272.253 489.055C272.613 489.73 273.498 490.15 274.443 490.15C275.388 490.15 276.198 489.82 276.873 489.145C277.548 488.47 277.878 487.585 277.878 486.505C277.878 485.41 277.548 484.54 276.873 483.865C276.198 483.19 275.388 482.845 274.443 482.845C273.483 482.845 272.613 483.25 272.253 483.925V479.185H270.423V490H272.253V489.055ZM284.125 486.73C284.125 487.855 283.465 488.365 282.61 488.365C281.875 488.365 281.275 487.87 281.275 486.805V482.995H279.43V487.135C279.43 489.07 280.495 490.15 282.19 490.15C282.925 490.15 283.75 489.73 284.125 489.01V490H285.955V482.995H284.125V486.73ZM290.686 487.315C291.226 487.435 291.466 487.63 291.451 487.975C291.451 488.38 291.061 488.665 290.536 488.68C289.876 488.695 289.291 488.29 289.246 487.795H287.536C287.551 488.515 287.836 489.085 288.391 489.52C288.961 489.94 289.621 490.15 290.356 490.15C291.136 490.15 291.811 489.955 292.366 489.58C292.936 489.205 293.221 488.665 293.221 487.99C293.221 487.435 292.996 486.31 291.391 485.89L290.221 485.605C289.726 485.47 289.486 485.275 289.486 485.02C289.486 484.555 289.786 484.33 290.371 484.33C290.851 484.33 291.301 484.57 291.316 485.05H293.056C293.026 484.3 292.741 483.745 292.216 483.385C291.691 483.025 291.061 482.845 290.326 482.845C289.621 482.845 289.021 483.055 288.511 483.475C288.001 483.88 287.746 484.375 287.746 484.93C287.746 485.77 287.926 486.565 289.726 487.075L290.686 487.315ZM294.842 482.995V490H296.657V482.995H294.842ZM295.757 481.39C296.402 481.39 296.912 480.895 296.912 480.28C296.912 479.665 296.402 479.185 295.757 479.185C295.112 479.185 294.572 479.665 294.572 480.28C294.572 480.895 295.097 481.39 295.757 481.39ZM300.554 486.265C300.554 485.125 301.184 484.63 302.084 484.63C302.909 484.63 303.419 485.185 303.419 486.19V490H305.249V485.86C305.249 483.895 304.304 482.845 302.639 482.845C301.799 482.845 300.929 483.31 300.554 484.03V482.995H298.724V490H300.554V486.265ZM313.985 486.475C313.985 485.395 313.64 484.525 312.965 483.85C312.29 483.175 311.45 482.845 310.43 482.845C309.41 482.845 308.555 483.175 307.85 483.85C307.145 484.525 306.8 485.395 306.8 486.475C306.8 487.555 307.145 488.44 307.85 489.13C308.555 489.805 309.41 490.15 310.43 490.15C311.825 490.15 313.1 489.595 313.7 488.455L312.305 487.705C311.99 488.29 311.285 488.605 310.55 488.605C309.515 488.605 308.735 488.02 308.615 487.105H313.955C313.97 486.88 313.985 486.67 313.985 486.475ZM308.6 485.86C308.735 484.945 309.47 484.375 310.445 484.375C311.36 484.375 312.065 484.915 312.2 485.86H308.6ZM318.181 487.315C318.721 487.435 318.961 487.63 318.946 487.975C318.946 488.38 318.556 488.665 318.031 488.68C317.371 488.695 316.786 488.29 316.741 487.795H315.031C315.046 488.515 315.331 489.085 315.886 489.52C316.456 489.94 317.116 490.15 317.851 490.15C318.631 490.15 319.306 489.955 319.861 489.58C320.431 489.205 320.716 488.665 320.716 487.99C320.716 487.435 320.491 486.31 318.886 485.89L317.716 485.605C317.221 485.47 316.981 485.275 316.981 485.02C316.981 484.555 317.281 484.33 317.866 484.33C318.346 484.33 318.796 484.57 318.811 485.05H320.551C320.521 484.3 320.236 483.745 319.711 483.385C319.186 483.025 318.556 482.845 317.821 482.845C317.116 482.845 316.516 483.055 316.006 483.475C315.496 483.88 315.241 484.375 315.241 484.93C315.241 485.77 315.421 486.565 317.221 487.075L318.181 487.315ZM324.992 487.315C325.532 487.435 325.772 487.63 325.757 487.975C325.757 488.38 325.367 488.665 324.842 488.68C324.182 488.695 323.597 488.29 323.552 487.795H321.842C321.857 488.515 322.142 489.085 322.697 489.52C323.267 489.94 323.927 490.15 324.662 490.15C325.442 490.15 326.117 489.955 326.672 489.58C327.242 489.205 327.527 488.665 327.527 487.99C327.527 487.435 327.302 486.31 325.697 485.89L324.527 485.605C324.032 485.47 323.792 485.275 323.792 485.02C323.792 484.555 324.092 484.33 324.677 484.33C325.157 484.33 325.607 484.57 325.622 485.05H327.362C327.332 484.3 327.047 483.745 326.522 483.385C325.997 483.025 325.367 482.845 324.632 482.845C323.927 482.845 323.327 483.055 322.817 483.475C322.307 483.88 322.052 484.375 322.052 484.93C322.052 485.77 322.232 486.565 324.032 487.075L324.992 487.315ZM330.139 487.87C329.494 487.87 328.969 488.365 328.969 489.01C328.969 489.655 329.494 490.15 330.139 490.15C330.799 490.15 331.339 489.67 331.339 489.01C331.339 488.35 330.799 487.87 330.139 487.87ZM333.63 480.325V482.995H332.355V484.465H333.63V490H335.445V484.465H336.93V482.995H335.445V480.325H333.63ZM338.304 482.995V490H340.119V482.995H338.304ZM339.219 481.39C339.864 481.39 340.374 480.895 340.374 480.28C340.374 479.665 339.864 479.185 339.219 479.185C338.574 479.185 338.034 479.665 338.034 480.28C338.034 480.895 338.559 481.39 339.219 481.39ZM348.936 490L345.366 486.07L348.306 482.995H345.936L344.001 485.095V479.185H342.186V490H344.001V487L346.641 490H348.936ZM350.549 480.325V482.995H349.274V484.465H350.549V490H352.364V484.465H353.849V482.995H352.364V480.325H350.549ZM360.175 486.475C360.175 487.6 359.38 488.35 358.345 488.35C357.31 488.35 356.515 487.6 356.515 486.475C356.515 485.395 357.31 484.645 358.345 484.645C359.38 484.645 360.175 485.395 360.175 486.475ZM360.925 489.115C361.63 488.44 361.99 487.555 361.99 486.475C361.99 485.395 361.63 484.525 360.925 483.85C360.22 483.175 359.365 482.845 358.345 482.845C357.325 482.845 356.455 483.175 355.75 483.85C355.045 484.525 354.7 485.395 354.7 486.475C354.7 487.555 355.045 488.44 355.75 489.115C356.455 489.79 357.325 490.135 358.345 490.135C359.365 490.135 360.22 489.79 360.925 489.115ZM370.381 490L366.811 486.07L369.751 482.995H367.381L365.446 485.095V479.185H363.631V490H365.446V487L368.086 490H370.381ZM372.4 487.87C371.755 487.87 371.23 488.365 371.23 489.01C371.23 489.655 371.755 490.15 372.4 490.15C373.06 490.15 373.6 489.67 373.6 489.01C373.6 488.35 373.06 487.87 372.4 487.87ZM378.826 482.845C377.791 482.845 376.891 483.19 376.156 483.865C375.421 484.54 375.046 485.41 375.046 486.475C375.046 487.54 375.421 488.425 376.156 489.115C376.891 489.805 377.791 490.15 378.826 490.15C380.011 490.15 381.091 489.655 381.751 488.77L380.281 487.69C379.936 488.155 379.456 488.395 378.826 488.395C378.301 488.395 377.836 488.215 377.446 487.855C377.056 487.48 376.861 487.03 376.861 486.475C376.861 485.92 377.056 485.485 377.446 485.14C377.836 484.795 378.301 484.615 378.826 484.615C379.456 484.615 379.936 484.84 380.281 485.305L381.736 484.21C381.076 483.355 380.011 482.845 378.826 482.845ZM388.227 486.475C388.227 487.6 387.432 488.35 386.397 488.35C385.362 488.35 384.567 487.6 384.567 486.475C384.567 485.395 385.362 484.645 386.397 484.645C387.432 484.645 388.227 485.395 388.227 486.475ZM388.977 489.115C389.682 488.44 390.042 487.555 390.042 486.475C390.042 485.395 389.682 484.525 388.977 483.85C388.272 483.175 387.417 482.845 386.397 482.845C385.377 482.845 384.507 483.175 383.802 483.85C383.097 484.525 382.752 485.395 382.752 486.475C382.752 487.555 383.097 488.44 383.802 489.115C384.507 489.79 385.377 490.135 386.397 490.135C387.417 490.135 388.272 489.79 388.977 489.115ZM399.528 484.63C400.308 484.63 400.848 485.215 400.848 486.19V490H402.663V485.995C402.663 483.955 401.688 482.845 399.963 482.845C398.988 482.845 398.253 483.28 397.758 484.165C397.383 483.355 396.648 482.92 395.523 482.86C394.743 482.86 393.873 483.25 393.513 484.03V482.995H391.683V490H393.513V486.265C393.513 485.14 394.143 484.63 394.983 484.63C395.718 484.63 396.258 485.2 396.273 486.145V490H398.103V486.265C398.103 485.23 398.673 484.63 399.528 484.63Z" fill="#333333" fill-opacity="0.5"/>
<g filter="url(#filter0_d_1331_2259)">
<path d="M223.113 68.3755H55.4123C48.0049 68.3755 42 74.3804 42 81.7879V301.588C42 308.995 48.0049 315 55.4123 315H327.588C334.995 315 341 308.995 341 301.588V60.4123C341 53.0049 334.995 47 327.588 47H251.001C246.236 47 241.828 49.5284 239.423 53.642L234.691 61.7336C232.286 65.8471 227.879 68.3755 223.113 68.3755Z" fill="white"/>
<path d="M223.113 68.3755H55.4123C48.0049 68.3755 42 74.3804 42 81.7879V301.588C42 308.995 48.0049 315 55.4123 315H327.588C334.995 315 341 308.995 341 301.588V60.4123C341 53.0049 334.995 47 327.588 47H251.001C246.236 47 241.828 49.5284 239.423 53.642L234.691 61.7336C232.286 65.8471 227.879 68.3755 223.113 68.3755Z" stroke="#E0E0E0" stroke-width="1.67654"/>
</g>
<rect x="65" y="114" width="253" height="136" rx="6.70616" fill="#F0F0F0"/>
<rect x="119" y="140" width="20" height="20" rx="3.75" fill="#121212"/>
<path d="M123.688 150.625L124 146.875H134V150.625L128.688 152.812L123.688 150.625Z" fill="white"/>
<path fill-rule="evenodd" clip-rule="evenodd" d="M127.177 144.271C126.601 144.271 126.135 144.737 126.135 145.312V146.093H124.833C123.97 146.093 123.271 146.793 123.271 147.656V154.166C123.271 155.029 123.97 155.729 124.833 155.729H133.166C134.029 155.729 134.729 155.029 134.729 154.166V147.656C134.729 146.793 134.029 146.093 133.166 146.093H131.864V145.312C131.864 144.737 131.398 144.271 130.823 144.271H127.177ZM130.823 146.093H127.177V145.312H130.823V146.093ZM127.177 147.135H130.823H133.166C133.454 147.135 133.687 147.368 133.687 147.656V150.398L129.105 152.496C128.962 152.561 128.797 152.559 128.656 152.489L124.312 150.329V147.656C124.312 147.368 124.545 147.135 124.833 147.135H127.177ZM124.312 154.166V151.492L128.192 153.421C128.615 153.631 129.109 153.639 129.538 153.443L133.687 151.544V154.166C133.687 154.454 133.454 154.687 133.166 154.687H124.833C124.545 154.687 124.312 154.454 124.312 154.166ZM129.781 149.739C129.781 149.308 129.431 148.958 129 148.958C128.568 148.958 128.218 149.308 128.218 149.739C128.218 150.171 128.568 150.521 129 150.521C129.431 150.521 129.781 150.171 129.781 149.739Z" fill="white"/>
<rect x="127.958" y="148.958" width="2.08333" height="2.08333" rx="1.04167" fill="black"/>
<rect x="119" y="172" width="20" height="20" rx="3.75" fill="#E0E0E0"/>
<rect x="119" y="204" width="20" height="20" rx="3.75" fill="#E0E0E0"/>
<path d="M70.1651 94.997L73.6128 90.1031H71.366L69.1966 93.4346L67.0531 90.1031H64.8063L68.2411 94.9712V99H70.1651V94.997ZM75.7145 97.3472C74.9526 97.3472 74.3586 96.7919 74.3586 95.9655C74.3586 95.1778 74.9526 94.5967 75.7145 94.5967C76.4763 94.5967 77.0832 95.1778 77.0832 95.9655C77.0832 96.7919 76.4892 97.3472 75.7145 97.3472ZM77.9355 98.2381C78.5424 97.6571 78.8523 96.8952 78.8523 95.9655C78.8523 95.0358 78.5424 94.2868 77.9355 93.7058C77.3286 93.1247 76.5925 92.8406 75.7145 92.8406C74.8364 92.8406 74.1004 93.1247 73.4935 93.7058C72.8866 94.2868 72.5896 95.0358 72.5896 95.9655C72.5896 96.8952 72.8866 97.6571 73.4935 98.2381C74.1004 98.8192 74.8364 99.1033 75.7145 99.1033C76.5925 99.1033 77.3286 98.8192 77.9355 98.2381ZM84.0256 96.1592C84.0256 96.9985 83.5608 97.3859 82.941 97.3859C82.4116 97.3859 81.8692 97.0502 81.8692 96.185V92.9697H80.0743V96.5724C80.0743 98.2252 81.0557 99.1291 82.4632 99.1291C83.0701 99.1291 83.7157 98.7547 84.0256 98.1736V99H85.8205V92.9697H84.0256V96.1592ZM97.3137 92.9697L96.2419 96.5595L95.1831 92.9697H93.6465L92.5876 96.5595L91.5159 92.9697H89.6048L91.787 99H93.2849L94.4212 95.1649L95.6092 99H97.1071L99.2248 92.9697H97.3137ZM100.176 92.9697V99H101.958V92.9697H100.176ZM101.067 89.6899C100.448 89.6899 99.944 90.1548 99.944 90.7358C99.944 91.3169 100.448 91.7947 101.067 91.7947C101.674 91.7947 102.165 91.3169 102.165 90.7358C102.165 90.1548 101.674 89.6899 101.067 89.6899ZM103.606 99H105.401V89.6899H103.606V99ZM107.049 99H108.844V89.6899H107.049V99ZM116.562 92.8406C115.671 92.8406 114.897 93.1376 114.251 93.7187C113.605 94.2998 113.282 95.0487 113.282 95.9655C113.282 96.8823 113.605 97.6442 114.251 98.2381C114.897 98.8321 115.671 99.1291 116.562 99.1291C117.647 99.1291 118.615 98.6514 119.184 97.8379L117.724 96.8048C117.466 97.2051 117.079 97.4117 116.562 97.4117C116.162 97.4117 115.813 97.2826 115.516 97.0114C115.219 96.7403 115.064 96.3916 115.064 95.9655C115.064 95.5523 115.219 95.2166 115.516 94.9583C115.813 94.6871 116.162 94.558 116.562 94.558C117.079 94.558 117.466 94.7646 117.724 95.1649L119.184 94.119C118.602 93.3055 117.634 92.8406 116.562 92.8406ZM122.223 96.8952C122.223 95.294 122.727 94.4934 123.721 94.4934C124.083 94.4934 124.392 94.558 124.638 94.6742L124.961 93.0601C124.664 92.9181 124.328 92.8406 123.928 92.8406C123.243 92.8406 122.52 93.3829 122.223 94.4289V92.9697H120.428V99H122.223V96.8952ZM130.023 97.0114C129.726 97.3859 129.287 97.5796 128.706 97.5796C127.996 97.5796 127.311 97.231 127.221 96.5724H131.637C131.65 96.3658 131.663 96.185 131.663 96.0172C131.663 95.0745 131.366 94.3127 130.772 93.7316C130.191 93.1376 129.455 92.8406 128.577 92.8406C127.686 92.8406 126.937 93.1247 126.33 93.7058C125.723 94.2868 125.426 95.0358 125.426 95.9655C125.426 96.8952 125.723 97.6571 126.33 98.2511C126.937 98.8321 127.686 99.1291 128.577 99.1291C129.855 99.1291 130.772 98.7159 131.327 97.9024L130.023 97.0114ZM127.247 95.449C127.531 94.0673 129.674 94.0802 129.855 95.449H127.247ZM139.137 99V92.9697H137.355V93.6412C136.942 93.0601 136.167 92.8406 135.599 92.8406C134.785 92.8406 134.075 93.1376 133.455 93.7187C132.835 94.2998 132.525 95.0487 132.525 95.9784C132.525 96.9081 132.835 97.67 133.455 98.2511C134.075 98.8321 134.785 99.1162 135.599 99.1162C135.883 99.1162 136.206 99.0517 136.554 98.9096C136.916 98.7676 137.187 98.5739 137.355 98.3156V99H139.137ZM135.896 97.4117C135.495 97.4117 135.147 97.2826 134.837 97.0114C134.54 96.7403 134.385 96.3916 134.385 95.9784C134.385 95.5652 134.54 95.2295 134.837 94.9583C135.147 94.6871 135.495 94.5451 135.896 94.5451C136.67 94.5451 137.355 95.1133 137.355 95.9784C137.355 96.8436 136.67 97.4117 135.896 97.4117ZM143.144 90.6584H141.362V92.9697H140.264V94.3901H141.362V99H143.144V94.3901H144.409V92.9697H143.144V90.6584ZM149.657 97.0114C149.36 97.3859 148.921 97.5796 148.34 97.5796C147.63 97.5796 146.945 97.231 146.855 96.5724H151.271C151.284 96.3658 151.297 96.185 151.297 96.0172C151.297 95.0745 151 94.3127 150.406 93.7316C149.825 93.1376 149.089 92.8406 148.211 92.8406C147.32 92.8406 146.571 93.1247 145.964 93.7058C145.357 94.2868 145.06 95.0358 145.06 95.9655C145.06 96.8952 145.357 97.6571 145.964 98.2511C146.571 98.8321 147.32 99.1291 148.211 99.1291C149.489 99.1291 150.406 98.7159 150.961 97.9024L149.657 97.0114ZM146.881 95.449C147.165 94.0673 149.308 94.0802 149.489 95.449H146.881ZM157.835 90.6584H156.053V92.9697H154.955V94.3901H156.053V99H157.835V94.3901H159.1V92.9697H157.835V90.6584ZM161.995 95.8105C161.995 94.9712 162.538 94.5838 163.196 94.5838C163.777 94.5838 164.307 95.0487 164.307 95.7847V99H166.102V95.7202C166.102 93.8736 165.249 92.8406 163.687 92.8406C163.364 92.8406 163.028 92.931 162.68 93.1247C162.331 93.3055 162.112 93.5637 161.995 93.9124V89.6899H160.201V99H161.995V95.8105ZM171.914 97.0114C171.617 97.3859 171.178 97.5796 170.597 97.5796C169.886 97.5796 169.202 97.231 169.112 96.5724H173.528C173.541 96.3658 173.554 96.185 173.554 96.0172C173.554 95.0745 173.257 94.3127 172.663 93.7316C172.082 93.1376 171.346 92.8406 170.468 92.8406C169.577 92.8406 168.828 93.1247 168.221 93.7058C167.614 94.2868 167.317 95.0358 167.317 95.9655C167.317 96.8952 167.614 97.6571 168.221 98.2511C168.828 98.8321 169.577 99.1291 170.468 99.1291C171.746 99.1291 172.663 98.7159 173.218 97.9024L171.914 97.0114ZM169.138 95.449C169.422 94.0673 171.565 94.0802 171.746 95.449H169.138ZM184.348 92.5824C184.348 91.0716 183.315 90.1031 181.714 90.1031H178.15V99H181.972C182.837 99 183.522 98.7417 184.038 98.2123C184.555 97.6829 184.813 97.0373 184.813 96.2754C184.813 95.8622 184.671 95.4619 184.374 95.0616C184.09 94.6613 183.677 94.3901 183.134 94.2481C183.974 93.9253 184.348 93.2538 184.348 92.5824ZM180.048 91.7689H181.52C182.075 91.7689 182.359 92.1304 182.359 92.6986C182.359 93.228 182.011 93.6154 181.533 93.6154H180.048V91.7689ZM181.83 95.1778C182.45 95.1778 182.824 95.6814 182.824 96.2367C182.824 96.8177 182.476 97.3343 181.869 97.3343H180.048V95.1778H181.83ZM190.039 96.1592C190.039 96.9985 189.574 97.3859 188.954 97.3859C188.425 97.3859 187.883 97.0502 187.883 96.185V92.9697H186.088V96.5724C186.088 98.2252 187.069 99.1291 188.476 99.1291C189.083 99.1291 189.729 98.7547 190.039 98.1736V99H191.834V92.9697H190.039V96.1592ZM195.841 96.7274C196.268 96.8436 196.435 96.9856 196.435 97.2439C196.435 97.5409 196.113 97.7345 195.699 97.7475C195.222 97.7475 194.821 97.4117 194.808 97.0502H193.13C193.143 97.6829 193.388 98.1994 193.892 98.5739C194.395 98.9483 194.989 99.1291 195.648 99.1291C196.345 99.1291 196.952 98.9613 197.468 98.6384C197.998 98.3156 198.256 97.8508 198.256 97.2439C198.256 96.8823 198.204 96.5466 197.675 96.043C197.417 95.7976 197.068 95.6039 196.616 95.4877L195.596 95.2166C195.26 95.1262 195.08 94.9841 195.067 94.7646C195.054 94.4934 195.299 94.3127 195.699 94.3127C196.151 94.3127 196.371 94.4934 196.384 94.8421H198.075C198.062 94.1577 197.817 93.6541 197.339 93.3313C196.862 93.0085 196.28 92.8406 195.596 92.8406C194.963 92.8406 194.421 93.0214 193.956 93.37C193.491 93.7187 193.259 94.1061 193.246 94.558C193.233 94.9325 193.259 95.1391 193.453 95.5523C193.659 95.9526 194.214 96.3012 195.054 96.5207L195.841 96.7274ZM199.519 92.9697V99H201.301V92.9697H199.519ZM200.41 89.6899C199.79 89.6899 199.286 90.1548 199.286 90.7358C199.286 91.3169 199.79 91.7947 200.41 91.7947C201.017 91.7947 201.507 91.3169 201.507 90.7358C201.507 90.1548 201.017 89.6899 200.41 89.6899ZM204.744 95.8105C204.744 94.997 205.118 94.5838 205.854 94.5838C206.487 94.5838 206.9 95.01 206.9 95.7847V99H208.695V95.3973C208.695 93.7058 207.882 92.8406 206.487 92.8406C205.777 92.8406 205.067 93.2409 204.744 93.8478V92.9697H202.949V99H204.744V95.8105ZM214.523 97.0114C214.226 97.3859 213.787 97.5796 213.206 97.5796C212.496 97.5796 211.812 97.231 211.721 96.5724H216.137C216.15 96.3658 216.163 96.185 216.163 96.0172C216.163 95.0745 215.866 94.3127 215.272 93.7316C214.691 93.1376 213.955 92.8406 213.077 92.8406C212.186 92.8406 211.437 93.1247 210.83 93.7058C210.223 94.2868 209.926 95.0358 209.926 95.9655C209.926 96.8952 210.223 97.6571 210.83 98.2511C211.437 98.8321 212.186 99.1291 213.077 99.1291C214.355 99.1291 215.272 98.7159 215.828 97.9024L214.523 97.0114ZM211.747 95.449C212.031 94.0673 214.175 94.0802 214.355 95.449H211.747ZM219.738 96.7274C220.164 96.8436 220.332 96.9856 220.332 97.2439C220.332 97.5409 220.009 97.7345 219.596 97.7475C219.118 97.7475 218.717 97.4117 218.705 97.0502H217.026C217.039 97.6829 217.284 98.1994 217.788 98.5739C218.291 98.9483 218.885 99.1291 219.544 99.1291C220.241 99.1291 220.848 98.9613 221.365 98.6384C221.894 98.3156 222.152 97.8508 222.152 97.2439C222.152 96.8823 222.101 96.5466 221.571 96.043C221.313 95.7976 220.964 95.6039 220.512 95.4877L219.492 95.2166C219.157 95.1262 218.976 94.9841 218.963 94.7646C218.95 94.4934 219.195 94.3127 219.596 94.3127C220.047 94.3127 220.267 94.4934 220.28 94.8421H221.971C221.959 94.1577 221.713 93.6541 221.235 93.3313C220.758 93.0085 220.177 92.8406 219.492 92.8406C218.86 92.8406 218.317 93.0214 217.852 93.37C217.387 93.7187 217.155 94.1061 217.142 94.558C217.129 94.9325 217.155 95.1391 217.349 95.5523C217.555 95.9526 218.111 96.3012 218.95 96.5207L219.738 96.7274ZM225.765 96.7274C226.191 96.8436 226.359 96.9856 226.359 97.2439C226.359 97.5409 226.036 97.7345 225.623 97.7475C225.145 97.7475 224.745 97.4117 224.732 97.0502H223.054C223.066 97.6829 223.312 98.1994 223.815 98.5739C224.319 98.9483 224.913 99.1291 225.572 99.1291C226.269 99.1291 226.876 98.9613 227.392 98.6384C227.922 98.3156 228.18 97.8508 228.18 97.2439C228.18 96.8823 228.128 96.5466 227.599 96.043C227.341 95.7976 226.992 95.6039 226.54 95.4877L225.52 95.2166C225.184 95.1262 225.003 94.9841 224.99 94.7646C224.978 94.4934 225.223 94.3127 225.623 94.3127C226.075 94.3127 226.295 94.4934 226.308 94.8421H227.999C227.986 94.1577 227.741 93.6541 227.263 93.3313C226.785 93.0085 226.204 92.8406 225.52 92.8406C224.887 92.8406 224.345 93.0214 223.88 93.37C223.415 93.7187 223.183 94.1061 223.17 94.558C223.157 94.9325 223.183 95.1391 223.376 95.5523C223.583 95.9526 224.138 96.3012 224.978 96.5207L225.765 96.7274ZM238.987 96.1205C238.483 96.8565 237.683 97.3472 236.766 97.3472C236.03 97.3472 235.423 97.076 234.932 96.5466C234.442 96.0042 234.196 95.3457 234.196 94.5709C234.196 93.7832 234.442 93.1247 234.932 92.5953C235.423 92.0529 236.03 91.7818 236.766 91.7818C237.683 91.7818 238.406 92.1691 238.935 92.9439L240.472 91.8851C239.684 90.7358 238.316 89.9998 236.766 89.9998C235.501 89.9998 234.442 90.4388 233.577 91.3298C232.724 92.2208 232.298 93.2926 232.298 94.5709C232.298 95.8364 232.724 96.9081 233.577 97.7991C234.442 98.6901 235.501 99.1291 236.766 99.1291C238.354 99.1291 239.723 98.3802 240.511 97.1793L238.987 96.1205ZM245.86 97.0114C245.563 97.3859 245.123 97.5796 244.542 97.5796C243.832 97.5796 243.148 97.231 243.057 96.5724H247.474C247.487 96.3658 247.499 96.185 247.499 96.0172C247.499 95.0745 247.202 94.3127 246.608 93.7316C246.027 93.1376 245.291 92.8406 244.413 92.8406C243.522 92.8406 242.773 93.1247 242.166 93.7058C241.56 94.2868 241.263 95.0358 241.263 95.9655C241.263 96.8952 241.56 97.6571 242.166 98.2511C242.773 98.8321 243.522 99.1291 244.413 99.1291C245.692 99.1291 246.608 98.7159 247.164 97.9024L245.86 97.0114ZM243.083 95.449C243.367 94.0673 245.511 94.0802 245.692 95.449H243.083ZM250.518 95.8105C250.518 94.997 250.893 94.5838 251.629 94.5838C252.262 94.5838 252.675 95.01 252.675 95.7847V99H254.47V95.3973C254.47 93.7058 253.656 92.8406 252.262 92.8406C251.552 92.8406 250.841 93.2409 250.518 93.8478V92.9697H248.724V99H250.518V95.8105ZM258.413 90.6584H256.631V92.9697H255.533V94.3901H256.631V99H258.413V94.3901H259.678V92.9697H258.413V90.6584ZM264.926 97.0114C264.629 97.3859 264.19 97.5796 263.609 97.5796C262.899 97.5796 262.214 97.231 262.124 96.5724H266.54C266.553 96.3658 266.566 96.185 266.566 96.0172C266.566 95.0745 266.269 94.3127 265.675 93.7316C265.094 93.1376 264.358 92.8406 263.48 92.8406C262.589 92.8406 261.84 93.1247 261.233 93.7058C260.626 94.2868 260.329 95.0358 260.329 95.9655C260.329 96.8952 260.626 97.6571 261.233 98.2511C261.84 98.8321 262.589 99.1291 263.48 99.1291C264.758 99.1291 265.675 98.7159 266.23 97.9024L264.926 97.0114ZM262.15 95.449C262.434 94.0673 264.577 94.0802 264.758 95.449H262.15ZM269.585 96.8952C269.585 95.294 270.089 94.4934 271.083 94.4934C271.444 94.4934 271.754 94.558 272 94.6742L272.322 93.0601C272.026 92.9181 271.69 92.8406 271.289 92.8406C270.605 92.8406 269.882 93.3829 269.585 94.4289V92.9697H267.79V99H269.585V96.8952ZM279.205 89.6899C277.461 89.6899 276.48 90.71 276.48 92.5565V92.9697H275.344V94.3901H276.48V99H278.288V94.3901H279.502V92.9697H278.288V92.5565C278.288 91.7947 278.598 91.4073 279.205 91.4073H279.863V89.6899H279.205ZM283.29 97.3472C282.528 97.3472 281.934 96.7919 281.934 95.9655C281.934 95.1778 282.528 94.5967 283.29 94.5967C284.052 94.5967 284.658 95.1778 284.658 95.9655C284.658 96.7919 284.064 97.3472 283.29 97.3472ZM285.511 98.2381C286.118 97.6571 286.427 96.8952 286.427 95.9655C286.427 95.0358 286.118 94.2868 285.511 93.7058C284.904 93.1247 284.168 92.8406 283.29 92.8406C282.412 92.8406 281.676 93.1247 281.069 93.7058C280.462 94.2868 280.165 95.0358 280.165 95.9655C280.165 96.8952 280.462 97.6571 281.069 98.2381C281.676 98.8192 282.412 99.1033 283.29 99.1033C284.168 99.1033 284.904 98.8192 285.511 98.2381ZM289.509 96.8952C289.509 95.294 290.013 94.4934 291.007 94.4934C291.368 94.4934 291.678 94.558 291.924 94.6742L292.246 93.0601C291.949 92.9181 291.614 92.8406 291.213 92.8406C290.529 92.8406 289.806 93.3829 289.509 94.4289V92.9697H287.714V99H289.509V96.8952Z" fill="#333333"/>
<rect x="268" y="61" width="44.6718" height="7.9771" rx="3.98855" fill="#F0F0F0"/>
<rect x="152" y="152" width="113" height="8" rx="4" fill="white"/>
<rect x="152" y="178" width="113" height="8" rx="4" fill="white"/>
<rect x="152" y="210" width="113" height="8" rx="4" fill="white"/>
<rect x="65" y="264" width="78.5133" height="22.7528" rx="11.3764" fill="#FE2C55"/>
<path d="M86.3791 272.61C85.8277 271.968 84.9781 271.588 84.038 271.588C83.1432 271.588 82.3929 271.905 81.7692 272.528C81.1546 273.152 80.8473 273.902 80.8473 274.788C80.8473 275.665 81.1546 276.424 81.7692 277.048C82.3929 277.671 83.1432 277.979 84.038 277.979C84.969 277.979 85.7102 277.699 86.2525 277.147C86.8039 276.587 87.0751 275.746 87.0751 274.616H83.8753V275.692H85.5475C85.5385 276.008 85.3758 276.261 85.0594 276.469C84.743 276.668 84.3996 276.768 84.038 276.768C83.5228 276.768 83.0799 276.578 82.7183 276.189C82.3568 275.8 82.176 275.33 82.176 274.788C82.176 274.246 82.3568 273.785 82.7093 273.396C83.0708 273.007 83.5138 272.818 84.038 272.818C84.5713 272.818 85.0323 273.025 85.4029 273.45L86.3791 272.61ZM90.8521 276.496C90.6442 276.759 90.3369 276.894 89.9301 276.894C89.433 276.894 88.9539 276.65 88.8906 276.189H91.982C91.991 276.044 92 275.918 92 275.8C92 275.141 91.7921 274.607 91.3764 274.201C90.9696 273.785 90.4544 273.577 89.8397 273.577C89.216 273.577 88.6918 273.776 88.267 274.182C87.8421 274.589 87.6342 275.113 87.6342 275.764C87.6342 276.415 87.8421 276.948 88.267 277.364C88.6918 277.771 89.216 277.979 89.8397 277.979C90.7346 277.979 91.3764 277.69 91.765 277.12L90.8521 276.496ZM88.9087 275.403C89.1076 274.436 90.608 274.445 90.7346 275.403H88.9087ZM94.4668 272.049H93.2194V273.667H92.4511V274.662H93.2194V277.888H94.4668V274.662H95.3526V273.667H94.4668V272.049ZM99.7983 276.298C100.097 276.379 100.214 276.478 100.214 276.659C100.214 276.867 99.9881 277.003 99.6989 277.012C99.3644 277.012 99.0842 276.777 99.0752 276.524H97.9001C97.9092 276.966 98.0809 277.328 98.4334 277.59C98.7859 277.852 99.2017 277.979 99.6627 277.979C100.151 277.979 100.576 277.861 100.937 277.635C101.308 277.409 101.489 277.084 101.489 276.659C101.489 276.406 101.452 276.171 101.082 275.819C100.901 275.647 100.657 275.511 100.341 275.43L99.6266 275.24C99.3916 275.177 99.265 275.077 99.256 274.924C99.2469 274.734 99.4187 274.607 99.6989 274.607C100.015 274.607 100.169 274.734 100.178 274.978H101.362C101.353 274.499 101.181 274.146 100.847 273.92C100.512 273.694 100.106 273.577 99.6266 273.577C99.1837 273.577 98.804 273.703 98.4786 273.947C98.1532 274.192 97.9905 274.463 97.9815 274.779C97.9724 275.041 97.9905 275.186 98.1261 275.475C98.2707 275.755 98.6594 275.999 99.2469 276.153L99.7983 276.298ZM104.018 272.049H102.77V273.667H102.002V274.662H102.77V277.888H104.018V274.662H104.903V273.667H104.018V272.049ZM109.987 277.888V273.667H108.74V274.137C108.45 273.731 107.908 273.577 107.51 273.577C106.941 273.577 106.444 273.785 106.01 274.192C105.576 274.598 105.359 275.123 105.359 275.773C105.359 276.424 105.576 276.957 106.01 277.364C106.444 277.771 106.941 277.97 107.51 277.97C107.709 277.97 107.935 277.925 108.179 277.825C108.432 277.726 108.622 277.59 108.74 277.409V277.888H109.987ZM107.718 276.777C107.438 276.777 107.194 276.686 106.977 276.496C106.769 276.307 106.661 276.063 106.661 275.773C106.661 275.484 106.769 275.249 106.977 275.059C107.194 274.869 107.438 274.77 107.718 274.77C108.261 274.77 108.74 275.168 108.74 275.773C108.74 276.379 108.261 276.777 107.718 276.777ZM112.403 276.415C112.403 275.294 112.756 274.734 113.452 274.734C113.705 274.734 113.922 274.779 114.093 274.86L114.319 273.731C114.111 273.631 113.876 273.577 113.596 273.577C113.117 273.577 112.611 273.956 112.403 274.689V273.667H111.147V277.888H112.403V276.415ZM116.614 272.049H115.367V273.667H114.598V274.662H115.367V277.888H116.614V274.662H117.5V273.667H116.614V272.049ZM121.173 276.496C120.965 276.759 120.658 276.894 120.251 276.894C119.754 276.894 119.275 276.65 119.212 276.189H122.303C122.312 276.044 122.321 275.918 122.321 275.8C122.321 275.141 122.113 274.607 121.697 274.201C121.291 273.785 120.775 273.577 120.161 273.577C119.537 273.577 119.013 273.776 118.588 274.182C118.163 274.589 117.955 275.113 117.955 275.764C117.955 276.415 118.163 276.948 118.588 277.364C119.013 277.771 119.537 277.979 120.161 277.979C121.056 277.979 121.697 277.69 122.086 277.12L121.173 276.496ZM119.23 275.403C119.429 274.436 120.929 274.445 121.056 275.403H119.23ZM126.188 275.764C126.188 276.352 125.754 276.786 125.212 276.786C124.669 276.786 124.236 276.379 124.236 275.764C124.236 275.177 124.669 274.761 125.212 274.761C125.754 274.761 126.188 275.15 126.188 275.764ZM127.462 271.371H126.215V274.182C126.007 273.812 125.519 273.577 124.977 273.577C124.416 273.577 123.937 273.785 123.531 274.192C123.133 274.598 122.934 275.132 122.934 275.791C122.934 276.433 123.133 276.966 123.531 277.373C123.937 277.78 124.416 277.979 124.977 277.979C125.519 277.979 126.007 277.753 126.215 277.364V277.888H127.462V271.371Z" fill="white"/>
<path d="M155.87 143.88L158.53 140.11H157L155.21 142.76L153.44 140.11H151.92L154.56 143.86V147H155.87V143.88ZM161.47 144.65C161.47 145.4 160.94 145.9 160.25 145.9C159.56 145.9 159.03 145.4 159.03 144.65C159.03 143.93 159.56 143.43 160.25 143.43C160.94 143.43 161.47 143.93 161.47 144.65ZM161.97 146.41C162.44 145.96 162.68 145.37 162.68 144.65C162.68 143.93 162.44 143.35 161.97 142.9C161.5 142.45 160.93 142.23 160.25 142.23C159.57 142.23 158.99 142.45 158.52 142.9C158.05 143.35 157.82 143.93 157.82 144.65C157.82 145.37 158.05 145.96 158.52 146.41C158.99 146.86 159.57 147.09 160.25 147.09C160.93 147.09 161.5 146.86 161.97 146.41ZM166.844 144.82C166.844 145.57 166.404 145.91 165.834 145.91C165.344 145.91 164.944 145.58 164.944 144.87V142.33H163.714V145.09C163.714 146.38 164.424 147.1 165.554 147.1C166.044 147.1 166.594 146.82 166.844 146.34V147H168.064V142.33H166.844V144.82ZM170.668 145.35C170.668 144.03 171.058 143.37 171.838 143.37C172.118 143.37 172.358 143.41 172.548 143.5L172.758 142.4C172.548 142.29 172.288 142.23 171.988 142.23C171.418 142.23 170.898 142.63 170.668 143.43V142.33H169.448V147H170.668V145.35ZM178.025 142.23C177.335 142.23 176.735 142.46 176.245 142.91C175.755 143.36 175.505 143.94 175.505 144.65C175.505 145.36 175.755 145.95 176.245 146.41C176.735 146.87 177.335 147.1 178.025 147.1C178.815 147.1 179.535 146.77 179.975 146.18L178.995 145.46C178.765 145.77 178.445 145.93 178.025 145.93C177.675 145.93 177.365 145.81 177.105 145.57C176.845 145.32 176.715 145.02 176.715 144.65C176.715 144.28 176.845 143.99 177.105 143.76C177.365 143.53 177.675 143.41 178.025 143.41C178.445 143.41 178.765 143.56 178.995 143.87L179.965 143.14C179.525 142.57 178.815 142.23 178.025 142.23ZM184.292 144.65C184.292 145.4 183.762 145.9 183.072 145.9C182.382 145.9 181.852 145.4 181.852 144.65C181.852 143.93 182.382 143.43 183.072 143.43C183.762 143.43 184.292 143.93 184.292 144.65ZM184.792 146.41C185.262 145.96 185.502 145.37 185.502 144.65C185.502 143.93 185.262 143.35 184.792 142.9C184.322 142.45 183.752 142.23 183.072 142.23C182.392 142.23 181.812 142.45 181.342 142.9C180.872 143.35 180.642 143.93 180.642 144.65C180.642 145.37 180.872 145.96 181.342 146.41C181.812 146.86 182.392 147.09 183.072 147.09C183.752 147.09 184.322 146.86 184.792 146.41ZM191.826 143.42C192.346 143.42 192.706 143.81 192.706 144.46V147H193.916V144.33C193.916 142.97 193.266 142.23 192.116 142.23C191.466 142.23 190.976 142.52 190.646 143.11C190.396 142.57 189.906 142.28 189.156 142.24C188.636 142.24 188.056 142.5 187.816 143.02V142.33H186.596V147H187.816V144.51C187.816 143.76 188.236 143.42 188.796 143.42C189.286 143.42 189.646 143.8 189.656 144.43V147H190.876V144.51C190.876 143.82 191.256 143.42 191.826 143.42ZM195.239 142.33V149.27H196.459V146.38C196.699 146.83 197.289 147.1 197.919 147.1C198.549 147.1 199.089 146.88 199.529 146.43C199.979 145.98 200.199 145.39 200.199 144.66C200.199 143.95 199.979 143.36 199.529 142.91C199.079 142.46 198.549 142.23 197.919 142.23C197.289 142.23 196.699 142.51 196.459 142.96V142.33H195.239ZM196.479 144.68C196.479 143.92 197.029 143.4 197.719 143.4C198.059 143.4 198.349 143.52 198.589 143.76C198.829 144 198.949 144.31 198.949 144.68C198.949 145.43 198.409 145.94 197.719 145.94C197.039 145.94 196.479 145.45 196.479 144.68ZM206.054 147V142.33H204.834V142.91C204.524 142.44 203.904 142.23 203.384 142.23C202.734 142.23 202.174 142.46 201.704 142.91C201.234 143.36 201.004 143.94 201.004 144.66C201.004 145.38 201.244 145.97 201.714 146.42C202.184 146.87 202.744 147.09 203.384 147.09C203.904 147.09 204.554 146.84 204.834 146.4V147H206.054ZM204.834 144.66C204.884 145.82 203.384 146.31 202.644 145.57C202.394 145.33 202.264 145.03 202.264 144.66C202.264 144.29 202.394 143.99 202.644 143.76C202.904 143.52 203.204 143.4 203.554 143.4C203.894 143.4 204.194 143.51 204.444 143.74C204.704 143.97 204.834 144.27 204.834 144.66ZM208.656 144.51C208.656 143.75 209.076 143.42 209.676 143.42C210.226 143.42 210.566 143.79 210.566 144.46V147H211.786V144.24C211.786 142.93 211.156 142.23 210.046 142.23C209.486 142.23 208.906 142.54 208.656 143.02V142.33H207.436V147H208.656V144.51ZM216.072 142.33L214.902 145.24L213.742 142.33H212.442L214.262 146.64L213.192 149.28H214.482L217.372 142.33H216.072Z" fill="#121212" fill-opacity="0.5"/>
<path d="M268 131.61C268 126.855 271.855 123 276.61 123H661.39C666.145 123 670 126.855 670 131.61V450.39C670 455.145 666.145 459 661.39 459H276.61C271.855 459 268 455.145 268 450.39V131.61Z" fill="white"/>
<path d="M268.499 131.61C268.499 127.13 272.13 123.499 276.61 123.499H660.48C664.96 123.499 668.592 127.13 668.592 131.61V449.39C668.592 453.87 664.96 457.501 660.48 457.501H276.61C272.13 457.501 268.499 453.87 268.499 449.39V131.61Z" fill="url(#paint0_linear_1331_2259)" stroke="white" stroke-width="0.997137"/>
<path d="M268.91 132.61C268.91 127.855 272.764 124 277.52 124H661.39C666.145 124 670 127.855 670 132.61V204H268.91V132.61Z" fill="black"/>
<rect x="505.97" y="171.66" width="40.6291" height="7.9771" rx="3.98855" fill="#F0F0F0"/>
<rect x="551.765" y="405" width="71.4081" height="22.7528" rx="11.3764" fill="#FE2C55"/>
<path d="M572.348 417.063C572.348 417.632 572.556 418.093 572.972 418.455C573.388 418.807 573.93 418.988 574.608 418.988C575.376 418.988 576.063 418.753 576.506 418.183C576.732 417.894 576.841 417.551 576.85 417.162C576.877 416.249 576.307 415.616 575.141 415.282L574.4 415.047C573.957 414.92 573.731 414.712 573.731 414.414C573.731 414.053 574.066 413.79 574.536 413.79C575.051 413.79 575.34 414.071 575.34 414.496H576.66C576.66 413.908 576.461 413.447 576.063 413.104C575.675 412.76 575.169 412.588 574.554 412.588C573.948 412.588 573.433 412.76 573.026 413.113C572.62 413.456 572.412 413.899 572.412 414.45C572.412 415.309 572.945 415.906 574.021 416.24L574.771 416.448C575.358 416.62 575.53 416.837 575.521 417.153C575.512 417.551 575.15 417.813 574.608 417.813C574.039 417.813 573.704 417.487 573.677 417.063H572.348ZM577.746 414.667V418.888H578.993V414.667H577.746ZM578.37 412.371C577.936 412.371 577.583 412.697 577.583 413.104C577.583 413.51 577.936 413.845 578.37 413.845C578.794 413.845 579.138 413.51 579.138 413.104C579.138 412.697 578.794 412.371 578.37 412.371ZM583.238 416.764C583.238 417.063 583.139 417.307 582.931 417.505C582.723 417.695 582.488 417.795 582.217 417.795C581.665 417.795 581.204 417.379 581.204 416.764C581.204 416.186 581.665 415.77 582.217 415.77C582.768 415.77 583.238 416.159 583.238 416.764ZM580.02 419.684C580.382 420.479 581.168 420.994 582.099 420.994C583.627 420.994 584.486 420.082 584.486 418.301V414.667H583.265V415.192C583.057 414.821 582.542 414.577 582 414.577C581.43 414.577 580.942 414.785 580.518 415.201C580.102 415.607 579.894 416.141 579.894 416.791C579.894 417.433 580.102 417.957 580.518 418.364C580.942 418.771 581.43 418.979 582 418.979C582.542 418.979 583.076 418.735 583.265 418.364C583.329 419.367 582.94 419.865 582.099 419.865C581.665 419.865 581.177 419.575 581.033 419.187L580.02 419.684ZM586.903 416.656C586.903 416.086 587.165 415.797 587.68 415.797C588.123 415.797 588.412 416.095 588.412 416.638V418.888H589.669V416.367C589.669 415.182 589.099 414.577 588.123 414.577C587.626 414.577 587.129 414.857 586.903 415.282V414.667H585.646V418.888H586.903V416.656ZM595.711 416.9C595.711 417.487 595.386 417.759 594.952 417.759C594.581 417.759 594.202 417.524 594.202 416.918V414.667H592.945V417.189C592.945 418.346 593.632 418.979 594.617 418.979C595.042 418.979 595.494 418.717 595.711 418.31V418.888H596.967V414.667H595.711V416.9ZM599.402 416.791C599.402 416.204 599.836 415.77 600.378 415.77C600.921 415.77 601.355 416.186 601.355 416.791C601.355 417.379 600.921 417.795 600.378 417.795C599.836 417.795 599.402 417.406 599.402 416.791ZM598.128 420.958H599.375V418.373C599.583 418.744 600.071 418.979 600.613 418.979C601.174 418.979 601.653 418.771 602.051 418.364C602.457 417.957 602.656 417.424 602.656 416.764C602.656 416.123 602.457 415.598 602.051 415.192C601.653 414.785 601.174 414.577 600.613 414.577C600.071 414.577 599.583 414.803 599.375 415.192V414.667H598.128V420.958Z" fill="white"/>
<rect x="458.086" y="171.66" width="40.6291" height="7.9771" rx="3.98855" fill="#E0E0E0"/>
<rect x="313.475" y="155" width="310.14" height="75" rx="6.70616" fill="white"/>
<rect x="313.475" y="239" width="310.14" height="45" rx="6.70616" fill="white"/>
<rect x="313.475" y="292" width="310.14" height="46" rx="6.70616" fill="white"/>
<rect x="313.475" y="346" width="310.14" height="45" rx="6.70616" fill="white"/>
<path d="M343.431 177.12C342.928 177.856 342.127 178.347 341.21 178.347C340.474 178.347 339.867 178.076 339.377 177.547C338.886 177.004 338.64 176.346 338.64 175.571C338.64 174.783 338.886 174.125 339.377 173.595C339.867 173.053 340.474 172.782 341.21 172.782C342.127 172.782 342.85 173.169 343.379 173.944L344.916 172.885C344.128 171.736 342.76 171 341.21 171C339.945 171 338.886 171.439 338.021 172.33C337.168 173.221 336.742 174.293 336.742 175.571C336.742 176.836 337.168 177.908 338.021 178.799C338.886 179.69 339.945 180.129 341.21 180.129C342.798 180.129 344.167 179.38 344.955 178.179L343.431 177.12ZM347.863 177.895C347.863 176.294 348.367 175.493 349.361 175.493C349.722 175.493 350.032 175.558 350.278 175.674L350.601 174.06C350.304 173.918 349.968 173.841 349.568 173.841C348.883 173.841 348.16 174.383 347.863 175.429V173.97H346.068V180H347.863V177.895ZM355.663 178.011C355.366 178.386 354.927 178.58 354.346 178.58C353.636 178.58 352.951 178.231 352.861 177.572H357.277C357.29 177.366 357.303 177.185 357.303 177.017C357.303 176.075 357.006 175.313 356.412 174.732C355.831 174.138 355.095 173.841 354.217 173.841C353.326 173.841 352.577 174.125 351.97 174.706C351.363 175.287 351.066 176.036 351.066 176.966C351.066 177.895 351.363 178.657 351.97 179.251C352.577 179.832 353.326 180.129 354.217 180.129C355.495 180.129 356.412 179.716 356.967 178.902L355.663 178.011ZM352.887 176.449C353.171 175.067 355.314 175.08 355.495 176.449H352.887ZM364.777 180V173.97H362.995V174.641C362.582 174.06 361.807 173.841 361.239 173.841C360.425 173.841 359.715 174.138 359.095 174.719C358.475 175.3 358.165 176.049 358.165 176.978C358.165 177.908 358.475 178.67 359.095 179.251C359.715 179.832 360.425 180.116 361.239 180.116C361.523 180.116 361.846 180.052 362.194 179.91C362.556 179.768 362.827 179.574 362.995 179.316V180H364.777ZM361.536 178.412C361.135 178.412 360.787 178.283 360.477 178.011C360.18 177.74 360.025 177.392 360.025 176.978C360.025 176.565 360.18 176.229 360.477 175.958C360.787 175.687 361.135 175.545 361.536 175.545C362.31 175.545 362.995 176.113 362.995 176.978C362.995 177.844 362.31 178.412 361.536 178.412ZM368.784 171.658H367.002V173.97H365.904V175.39H367.002V180H368.784V175.39H370.049V173.97H368.784V171.658ZM375.297 178.011C375 178.386 374.561 178.58 373.98 178.58C373.269 178.58 372.585 178.231 372.495 177.572H376.911C376.924 177.366 376.937 177.185 376.937 177.017C376.937 176.075 376.64 175.313 376.046 174.732C375.465 174.138 374.729 173.841 373.851 173.841C372.96 173.841 372.211 174.125 371.604 174.706C370.997 175.287 370.7 176.036 370.7 176.966C370.7 177.895 370.997 178.657 371.604 179.251C372.211 179.832 372.96 180.129 373.851 180.129C375.129 180.129 376.046 179.716 376.601 178.902L375.297 178.011ZM372.521 176.449C372.805 175.067 374.948 175.08 375.129 176.449H372.521ZM384.795 173.97L383.452 177.392L382.122 173.97H380.211L382.535 179.38L381.089 182.957H382.987L386.706 173.97H384.795ZM390.218 178.347C389.456 178.347 388.862 177.792 388.862 176.966C388.862 176.178 389.456 175.597 390.218 175.597C390.98 175.597 391.587 176.178 391.587 176.966C391.587 177.792 390.993 178.347 390.218 178.347ZM392.439 179.238C393.046 178.657 393.356 177.895 393.356 176.966C393.356 176.036 393.046 175.287 392.439 174.706C391.832 174.125 391.096 173.841 390.218 173.841C389.34 173.841 388.604 174.125 387.997 174.706C387.39 175.287 387.093 176.036 387.093 176.966C387.093 177.895 387.39 178.657 387.997 179.238C388.604 179.819 389.34 180.103 390.218 180.103C391.096 180.103 391.832 179.819 392.439 179.238ZM398.529 177.159C398.529 177.999 398.064 178.386 397.444 178.386C396.915 178.386 396.373 178.05 396.373 177.185V173.97H394.578V177.572C394.578 179.225 395.559 180.129 396.967 180.129C397.574 180.129 398.219 179.755 398.529 179.174V180H400.324V173.97H398.529V177.159ZM403.776 177.895C403.776 176.294 404.28 175.493 405.274 175.493C405.636 175.493 405.946 175.558 406.191 175.674L406.514 174.06C406.217 173.918 405.881 173.841 405.481 173.841C404.796 173.841 404.073 174.383 403.776 175.429V173.97H401.981V180H403.776V177.895ZM416.541 180V173.97H414.759V174.641C414.346 174.06 413.571 173.841 413.003 173.841C412.19 173.841 411.479 174.138 410.86 174.719C410.24 175.3 409.93 176.049 409.93 176.978C409.93 177.908 410.24 178.67 410.86 179.251C411.479 179.832 412.19 180.116 413.003 180.116C413.287 180.116 413.61 180.052 413.959 179.91C414.32 179.768 414.591 179.574 414.759 179.316V180H416.541ZM413.3 178.412C412.9 178.412 412.551 178.283 412.241 178.011C411.944 177.74 411.789 177.392 411.789 176.978C411.789 176.565 411.944 176.229 412.241 175.958C412.551 175.687 412.9 175.545 413.3 175.545C414.075 175.545 414.759 176.113 414.759 176.978C414.759 177.844 414.075 178.412 413.3 178.412ZM421.116 173.841C420.225 173.841 419.451 174.138 418.805 174.719C418.159 175.3 417.836 176.049 417.836 176.966C417.836 177.882 418.159 178.644 418.805 179.238C419.451 179.832 420.225 180.129 421.116 180.129C422.201 180.129 423.169 179.651 423.738 178.838L422.278 177.805C422.02 178.205 421.633 178.412 421.116 178.412C420.716 178.412 420.367 178.283 420.07 178.011C419.773 177.74 419.618 177.392 419.618 176.966C419.618 176.552 419.773 176.217 420.07 175.958C420.367 175.687 420.716 175.558 421.116 175.558C421.633 175.558 422.02 175.765 422.278 176.165L423.738 175.119C423.157 174.305 422.188 173.841 421.116 173.841ZM427.825 173.841C426.934 173.841 426.159 174.138 425.514 174.719C424.868 175.3 424.545 176.049 424.545 176.966C424.545 177.882 424.868 178.644 425.514 179.238C426.159 179.832 426.934 180.129 427.825 180.129C428.91 180.129 429.878 179.651 430.446 178.838L428.987 177.805C428.729 178.205 428.341 178.412 427.825 178.412C427.425 178.412 427.076 178.283 426.779 178.011C426.482 177.74 426.327 177.392 426.327 176.966C426.327 176.552 426.482 176.217 426.779 175.958C427.076 175.687 427.425 175.558 427.825 175.558C428.341 175.558 428.729 175.765 428.987 176.165L430.446 175.119C429.865 174.305 428.897 173.841 427.825 173.841ZM434.379 178.347C433.617 178.347 433.023 177.792 433.023 176.966C433.023 176.178 433.617 175.597 434.379 175.597C435.14 175.597 435.747 176.178 435.747 176.966C435.747 177.792 435.153 178.347 434.379 178.347ZM436.6 179.238C437.206 178.657 437.516 177.895 437.516 176.966C437.516 176.036 437.206 175.287 436.6 174.706C435.993 174.125 435.257 173.841 434.379 173.841C433.5 173.841 432.764 174.125 432.158 174.706C431.551 175.287 431.254 176.036 431.254 176.966C431.254 177.895 431.551 178.657 432.158 179.238C432.764 179.819 433.5 180.103 434.379 180.103C435.257 180.103 435.993 179.819 436.6 179.238ZM442.69 177.159C442.69 177.999 442.225 178.386 441.605 178.386C441.076 178.386 440.533 178.05 440.533 177.185V173.97H438.738V177.572C438.738 179.225 439.72 180.129 441.127 180.129C441.734 180.129 442.38 179.755 442.69 179.174V180H444.485V173.97H442.69V177.159ZM447.937 176.811C447.937 175.997 448.311 175.584 449.047 175.584C449.68 175.584 450.093 176.01 450.093 176.785V180H451.888V176.397C451.888 174.706 451.075 173.841 449.68 173.841C448.97 173.841 448.26 174.241 447.937 174.848V173.97H446.142V180H447.937V176.811ZM455.831 171.658H454.049V173.97H452.952V175.39H454.049V180H455.831V175.39H457.097V173.97H455.831V171.658ZM461.098 173.97V180H462.88V173.97H461.098ZM461.989 170.69C461.369 170.69 460.865 171.155 460.865 171.736C460.865 172.317 461.369 172.795 461.989 172.795C462.596 172.795 463.086 172.317 463.086 171.736C463.086 171.155 462.596 170.69 461.989 170.69ZM466.323 176.811C466.323 175.997 466.697 175.584 467.433 175.584C468.066 175.584 468.479 176.01 468.479 176.785V180H470.274V176.397C470.274 174.706 469.46 173.841 468.066 173.841C467.356 173.841 466.645 174.241 466.323 174.848V173.97H464.528V180H466.323V176.811ZM474.541 183.034C476.181 183.034 476.827 182.105 476.827 180.413V173.97H475.019V180.452C475.032 181.085 474.774 181.407 474.232 181.407H473.444V183.034H474.541ZM475.123 172.485C475.575 172.898 476.285 172.898 476.711 172.485C477.137 172.072 477.137 171.4 476.711 171C476.285 170.587 475.575 170.587 475.123 171C474.696 171.4 474.696 172.072 475.123 172.485ZM482.361 177.159C482.361 177.999 481.896 178.386 481.276 178.386C480.747 178.386 480.205 178.05 480.205 177.185V173.97H478.41V177.572C478.41 179.225 479.391 180.129 480.799 180.129C481.406 180.129 482.051 179.755 482.361 179.174V180H484.156V173.97H482.361V177.159ZM488.164 177.727C488.59 177.844 488.758 177.986 488.758 178.244C488.758 178.541 488.435 178.735 488.022 178.747C487.544 178.747 487.144 178.412 487.131 178.05H485.452C485.465 178.683 485.71 179.199 486.214 179.574C486.717 179.948 487.311 180.129 487.97 180.129C488.667 180.129 489.274 179.961 489.791 179.638C490.32 179.316 490.578 178.851 490.578 178.244C490.578 177.882 490.527 177.547 489.997 177.043C489.739 176.798 489.39 176.604 488.938 176.488L487.918 176.217C487.583 176.126 487.402 175.984 487.389 175.765C487.376 175.493 487.621 175.313 488.022 175.313C488.474 175.313 488.693 175.493 488.706 175.842H490.398C490.385 175.158 490.139 174.654 489.662 174.331C489.184 174.008 488.603 173.841 487.918 173.841C487.286 173.841 486.743 174.021 486.278 174.37C485.814 174.719 485.581 175.106 485.568 175.558C485.555 175.932 485.581 176.139 485.775 176.552C485.981 176.953 486.537 177.301 487.376 177.521L488.164 177.727ZM494.191 171.658H492.409V173.97H491.312V175.39H492.409V180H494.191V175.39H495.457V173.97H494.191V171.658ZM501.963 176.333C503.228 176.294 503.138 177.288 503.112 177.456C503.06 177.921 502.518 178.399 501.898 178.36C501.653 178.347 501.408 178.27 501.162 178.102C500.917 177.934 500.736 177.74 500.646 177.547L499.057 178.334C499.522 179.316 500.581 180.039 501.756 180.103C502.595 180.168 503.344 179.961 504.003 179.496C504.662 179.019 505.023 178.425 505.088 177.702C505.126 177.237 505.01 176.785 504.739 176.333C504.468 175.881 504.093 175.571 503.641 175.403C504.3 175.041 504.726 174.422 504.726 173.75C504.739 173.143 504.507 172.601 504.029 172.136C503.551 171.658 502.944 171.413 502.221 171.374C501.098 171.31 500.103 171.813 499.587 172.627L501.046 173.518C501.24 173.208 501.537 173.053 501.937 173.053C502.505 173.053 502.789 173.518 502.789 173.866C502.789 174.473 502.518 174.783 501.963 174.783H501.072V176.333H501.963ZM512.085 177.727C512.511 177.844 512.679 177.986 512.679 178.244C512.679 178.541 512.356 178.735 511.943 178.747C511.465 178.747 511.065 178.412 511.052 178.05H509.373C509.386 178.683 509.632 179.199 510.135 179.574C510.639 179.948 511.233 180.129 511.891 180.129C512.589 180.129 513.196 179.961 513.712 179.638C514.241 179.316 514.5 178.851 514.5 178.244C514.5 177.882 514.448 177.547 513.919 177.043C513.66 176.798 513.312 176.604 512.86 176.488L511.84 176.217C511.504 176.126 511.323 175.984 511.31 175.765C511.297 175.493 511.543 175.313 511.943 175.313C512.395 175.313 512.614 175.493 512.627 175.842H514.319C514.306 175.158 514.061 174.654 513.583 174.331C513.105 174.008 512.524 173.841 511.84 173.841C511.207 173.841 510.665 174.021 510.2 174.37C509.735 174.719 509.502 175.106 509.49 175.558C509.477 175.932 509.502 176.139 509.696 176.552C509.903 176.953 510.458 177.301 511.297 177.521L512.085 177.727ZM518.113 171.658H516.331V173.97H515.233V175.39H516.331V180H518.113V175.39H519.378V173.97H518.113V171.658ZM524.626 178.011C524.329 178.386 523.89 178.58 523.309 178.58C522.599 178.58 521.914 178.231 521.824 177.572H526.24C526.253 177.366 526.266 177.185 526.266 177.017C526.266 176.075 525.969 175.313 525.375 174.732C524.794 174.138 524.058 173.841 523.18 173.841C522.289 173.841 521.54 174.125 520.933 174.706C520.326 175.287 520.029 176.036 520.029 176.966C520.029 177.895 520.326 178.657 520.933 179.251C521.54 179.832 522.289 180.129 523.18 180.129C524.458 180.129 525.375 179.716 525.93 178.902L524.626 178.011ZM521.85 176.449C522.134 175.067 524.277 175.08 524.458 176.449H521.85ZM529.311 177.004C529.311 176.165 529.93 175.545 530.705 175.545C531.48 175.545 532.1 176.139 532.1 177.004C532.1 177.844 531.48 178.438 530.705 178.438C529.93 178.438 529.311 177.882 529.311 177.004ZM527.49 182.957H529.272V179.264C529.569 179.793 530.266 180.129 531.041 180.129C531.842 180.129 532.526 179.832 533.094 179.251C533.675 178.67 533.959 177.908 533.959 176.966C533.959 176.049 533.675 175.3 533.094 174.719C532.526 174.138 531.842 173.841 531.041 173.841C530.266 173.841 529.569 174.163 529.272 174.719V173.97H527.49V182.957ZM537.608 177.727C538.034 177.844 538.202 177.986 538.202 178.244C538.202 178.541 537.879 178.735 537.466 178.747C536.988 178.747 536.588 178.412 536.575 178.05H534.896C534.909 178.683 535.155 179.199 535.658 179.574C536.162 179.948 536.756 180.129 537.414 180.129C538.112 180.129 538.718 179.961 539.235 179.638C539.764 179.316 540.023 178.851 540.023 178.244C540.023 177.882 539.971 177.547 539.442 177.043C539.183 176.798 538.835 176.604 538.383 176.488L537.363 176.217C537.027 176.126 536.846 175.984 536.833 175.765C536.82 175.493 537.066 175.313 537.466 175.313C537.918 175.313 538.137 175.493 538.15 175.842H539.842C539.829 175.158 539.584 174.654 539.106 174.331C538.628 174.008 538.047 173.841 537.363 173.841C536.73 173.841 536.188 174.021 535.723 174.37C535.258 174.719 535.025 175.106 535.012 175.558C535 175.932 535.025 176.139 535.219 176.552C535.426 176.953 535.981 177.301 536.82 177.521L537.608 177.727Z" fill="#333333"/>
<path d="M365.757 256.98C365.757 257.61 365.987 258.12 366.447 258.52C366.907 258.91 367.507 259.11 368.257 259.11C369.107 259.11 369.867 258.85 370.357 258.22C370.607 257.9 370.727 257.52 370.737 257.09C370.767 256.08 370.137 255.38 368.847 255.01L368.027 254.75C367.537 254.61 367.287 254.38 367.287 254.05C367.287 253.65 367.657 253.36 368.177 253.36C368.747 253.36 369.067 253.67 369.067 254.14H370.527C370.527 253.49 370.307 252.98 369.867 252.6C369.437 252.22 368.877 252.03 368.197 252.03C367.527 252.03 366.957 252.22 366.507 252.61C366.057 252.99 365.827 253.48 365.827 254.09C365.827 255.04 366.417 255.7 367.607 256.07L368.437 256.3C369.087 256.49 369.277 256.73 369.267 257.08C369.257 257.52 368.857 257.81 368.257 257.81C367.627 257.81 367.257 257.45 367.227 256.98H365.757ZM373.539 252.54H372.159V254.33H371.309V255.43H372.159V259H373.539V255.43H374.519V254.33H373.539V252.54ZM378.583 257.46C378.353 257.75 378.013 257.9 377.563 257.9C377.013 257.9 376.483 257.63 376.413 257.12H379.833C379.843 256.96 379.853 256.82 379.853 256.69C379.853 255.96 379.623 255.37 379.163 254.92C378.713 254.46 378.143 254.23 377.463 254.23C376.773 254.23 376.193 254.45 375.723 254.9C375.253 255.35 375.023 255.93 375.023 256.65C375.023 257.37 375.253 257.96 375.723 258.42C376.193 258.87 376.773 259.1 377.463 259.1C378.453 259.1 379.163 258.78 379.593 258.15L378.583 257.46ZM376.433 256.25C376.653 255.18 378.313 255.19 378.453 256.25H376.433ZM382.211 256.68C382.211 256.03 382.691 255.55 383.291 255.55C383.891 255.55 384.371 256.01 384.371 256.68C384.371 257.33 383.891 257.79 383.291 257.79C382.691 257.79 382.211 257.36 382.211 256.68ZM380.801 261.29H382.181V258.43C382.411 258.84 382.951 259.1 383.551 259.1C384.171 259.1 384.701 258.87 385.141 258.42C385.591 257.97 385.811 257.38 385.811 256.65C385.811 255.94 385.591 255.36 385.141 254.91C384.701 254.46 384.171 254.23 383.551 254.23C382.951 254.23 382.411 254.48 382.181 254.91V254.33H380.801V261.29ZM389.008 253.56V254.79L390.128 254.31V259H391.528V252.36L389.008 253.56Z" fill="#333333"/>
<rect x="336.213" y="193" width="126.966" height="7.9771" rx="3.98855" fill="#F0F0F0"/>
<rect x="336.213" y="208.156" width="65.2967" height="7.9771" rx="3.98855" fill="#F0F0F0"/>
<rect x="365.317" y="265" width="110.959" height="7" rx="3.5" fill="#F0F0F0"/>
<rect x="365.317" y="318" width="98.2262" height="7" rx="3.5" fill="#F0F0F0"/>
<rect x="365.317" y="372" width="98.2262" height="7" rx="3.5" fill="#F0F0F0"/>
<rect x="365.317" y="305" width="110.959" height="7" rx="3.5" fill="#F0F0F0"/>
<rect x="365.317" y="359" width="110.959" height="7" rx="3.5" fill="#F0F0F0"/>
<rect x="336.149" y="251.85" width="19.99" height="19.9886" rx="3.63636" fill="#121212"/>
<g clip-path="url(#clip0_1331_2259)">
<path d="M350.645 258.061H341.781C341.509 258.061 341.289 258.281 341.289 258.553V265.447C341.289 265.719 341.509 265.939 341.781 265.939H350.645C350.917 265.939 351.137 265.719 351.137 265.447V258.553C351.137 258.281 350.917 258.061 350.645 258.061Z" stroke="white" stroke-width="0.984848" stroke-linejoin="round"/>
<path d="M344.489 262.246C345.033 262.246 345.474 261.805 345.474 261.261C345.474 260.718 345.033 260.277 344.489 260.277C343.945 260.277 343.504 260.718 343.504 261.261C343.504 261.805 343.945 262.246 344.489 262.246Z" stroke="white" stroke-width="0.984848" stroke-linejoin="round"/>
<path d="M345.965 263.723C345.965 262.907 345.304 262.246 344.488 262.246C343.672 262.246 343.011 262.907 343.011 263.723" stroke="white" stroke-width="0.984848" stroke-linecap="round" stroke-linejoin="round"/>
<path d="M347.198 261.015H349.167" stroke="white" stroke-width="0.984848" stroke-linecap="round" stroke-linejoin="round"/>
<path d="M347.689 262.985H349.167" stroke="white" stroke-width="0.984848" stroke-linecap="round" stroke-linejoin="round"/>
</g>
<rect x="336.213" y="305" width="20" height="20" rx="3.75" fill="#E0E0E0"/>
<rect x="336.213" y="359" width="20" height="20" rx="3.75" fill="#E0E0E0"/>
<defs>
<filter id="filter0_d_1331_2259" x="11.5901" y="46.1616" width="354.443" height="323.443" filterUnits="userSpaceOnUse" color-interpolation-filters="sRGB">
<feFlood flood-opacity="0" result="BackgroundImageFix"/>
<feColorMatrix in="SourceAlpha" type="matrix" values="0 0 0 0 0 0 0 0 0 0 0 0 0 0 0 0 0 0 127 0" result="hardAlpha"/>
<feOffset dx="-2.68832" dy="26.8832"/>
<feGaussianBlur stdDeviation="13.4416"/>
<feComposite in2="hardAlpha" operator="out"/>
<feColorMatrix type="matrix" values="0 0 0 0 0 0 0 0 0 0 0 0 0 0 0 0 0 0 0.05 0"/>
<feBlend mode="normal" in2="BackgroundImageFix" result="effect1_dropShadow_1331_2259"/>
<feBlend mode="normal" in="SourceGraphic" in2="effect1_dropShadow_1331_2259" result="shape"/>
</filter>
<linearGradient id="paint0_linear_1331_2259" x1="468.545" y1="123" x2="468.545" y2="458" gradientUnits="userSpaceOnUse">
<stop stop-color="#E8E8E8"/>
<stop offset="1" stop-color="#F5F5F5" stop-opacity="0.72"/>
</linearGradient>
<clipPath id="clip0_1331_2259">
<rect width="11.8182" height="11.8182" fill="white" transform="translate(340.303 256.091)"/>
</clipPath>
</defs>
</svg>
