<svg xmlns="http://www.w3.org/2000/svg" width="81" height="55" fill="none" viewBox="0 0 81 55"><path fill="#F5E706" d="M38.032 48.07a2.93 2.93 0 0 1 1.863 1.464c.126.229.217.45.28.642.724-.244 1.512-.346 2.005-.386v-.082c-.008-.623.074-.87.141-1.005v-.008c.122-.232.378-.453.843-.712.103-.06.205-.11.292-.154.02-.626.075-2.103.098-2.765.032-.847.177-2.852.185-2.966a.793.793 0 0 1 .327-.56l.02-.011c.343-.225.622-.434.729-.528.035-.162.07-.567.086-.941l.016-.438.417-.02a.548.548 0 0 0 .264-.121c.024-.15 0-.552-.05-.895l-.048-.334.3-.154c.133-.075.523-.33.677-.63.161-.323.268-.957.291-1.493-.181.185-.366.28-.563.28-.142 0-.607-.06-.646-.812-.06-1.099.843-1.76.882-1.788l.315-.224.284.26c.063.059.154.118.256.18.028-.094.06-.188.087-.287.118-.378.267-.855.338-1.63v-.012c.107-.926-.13-1.135-.208-1.202a.105.105 0 0 0-.024-.02 1.122 1.122 0 0 0-.39-.066.837.837 0 0 0-.315.055c-.197.165-.382.244-.571.244a.62.62 0 0 1-.54-.311c-.181-.303-.13-.748.008-1.016v-.008c.15-.264.469-.406 1.142-.508.107-.016.213-.028.308-.04a.78.78 0 0 0-.036-.118l-.386-.815.89.142s.788.118 1.765.118c.977 0 1.788-.11 2.426-.335 2.226-.78 5.168-.863 6.015-.866h.02c.539.015 1.075.027 1.595.027 6.058 0 9.401-1.217 10.827-1.737.06-.02.11-.043.162-.059h.008c1.512-.528 3.17-1.481 4.541-2.615 1.485-1.225 2.537-2.584 2.966-3.821l.008-.016.008-.015c.792-1.844.985-4.743-1.08-6.826-1.134-1.15-2.575-1.734-4.297-1.734-.598 0-1.158.071-1.63.166 1.418.48 2.505 1.071 3.296 1.792.903.815 1.257 1.643 1.513 2.415l.012.031v.036c.173.972.082 1.894-.26 2.737-.418 1.032-1.217 1.965-2.383 2.773-2.785 2.143-7.31 2.737-9.134 2.895-.705.075-1.564.114-2.552.114-2.277 0-4.924-.213-5.96-.41-1.052-.197-3.62-.421-4.998-.54-.292-.027-.548-.046-.721-.066a9.359 9.359 0 0 0-.835-.051c-.58 0-.938.13-1.272.46l-.016.016c-.43.378-.772.556-1.071.556a.625.625 0 0 1-.47-.193l-.011-.016s-.953-1.134-2.351-1.134c-.071 0-.142 0-.213.007-1.142.091-1.457.378-1.733.63-.13.119-.264.24-.453.34-.146.086-.3.16-.485.16-.224 0-.386-.11-.504-.196-.063-.04-1.118-.733-2.245-.91a3.943 3.943 0 0 0-.378-.016c-1.639 0-3.14.867-3.155.879l-.547.323-.142-.576c-.115-.094-.583-.263-1.28-.263-.146 0-.288.008-.426.023-.3.036-.835.075-1.457.126-1.45.114-3.43.272-4.313.453-1.008.213-4.384.528-7.177.528-.764 0-1.425-.024-1.97-.075a25.198 25.198 0 0 1-4.537-.736c-1.926-.504-3.493-1.194-4.655-2.056-1.178-.784-1.997-1.702-2.43-2.73-.355-.835-.461-1.753-.312-2.73v-.035l.016-.031c.24-.776.58-1.611 1.47-2.443.78-.732 1.854-1.343 3.26-1.847a8.177 8.177 0 0 0-1.504-.142c-1.772 0-3.25.61-4.396 1.808-2.028 2.135-1.784 5.018-.953 6.846l.008.016.008.015c.445 1.221 1.548 2.56 3.108 3.77 1.425 1.107 3.127 2.028 4.671 2.532H11l.276.099c1.512.524 4.663 1.623 10.394 1.623.788 0 1.607-.024 2.434-.067h.02c.095 0 .205 0 .327-.004.26 0 .579-.008.93-.008 2.229 0 3.891.189 5.077.583 1.59.52 3.395.544 3.738.544h.299l.146.185c.086.114.098.216.122.417.027.236.063.634.11 1.186.06.716-.268 1.327-.914 1.72a2.658 2.658 0 0 1-.398.198c.04.13.08.272.11.41.095.382.166.768.221 1.075l.079.41c.158.145.268.338.358.496.036.059.075.13.099.157.067.075.228.205.319.272l.76.536-.788.275c.016.851.11 1.816.418 2.246.027.011.067.023.094.035.316.114.902.327 1.143 1.012l.023.067v.071c.032.71.103 1.481.142 1.899.496.216.804.634.886.752.28.347.367.752.418 1.071v.028c.008.043.02.165.031.307.024.236.048.536.06.65v.008c.02.24.003.575-.016 1-.02.453-.044.965-.032 1.474.016.68.11 1.33.17 1.697m1.398 3.486-.067-.677c-.008-.08-.22-1.69-1.82-1.938l-.327-.052-.067-.323c-.008-.043-.212-1.051-.24-2.17-.012-.544.016-1.099.032-1.544a9.14 9.14 0 0 0 .02-.874 71.81 71.81 0 0 1-.06-.658c-.012-.126-.02-.236-.027-.288-.048-.291-.115-.484-.229-.614l-.02-.024-.015-.02c-.075-.11-.327-.41-.627-.46l-.35-.063-.04-.359a40.4 40.4 0 0 1-.173-2.182c-.09-.2-.28-.28-.543-.378-.178-.063-.347-.126-.47-.276v-.008c-.188-.224-.677-.81-.677-3.225v-.06a1.128 1.128 0 0 1-.067-.074h-.003a2.374 2.374 0 0 1-.186-.288c-.047-.083-.145-.256-.2-.291l-.11-.071-.06-.118c-.067-.13-.098-.308-.177-.73-.055-.298-.122-.669-.213-1.027v-.016c-.075-.343-.236-.748-.236-.752l-.22-.555.582-.087c.02-.004.331-.063.615-.24.429-.268.457-.595.437-.82-.036-.437-.063-.728-.079-.918-.725-.023-2.269-.126-3.675-.586-1.087-.363-2.65-.536-4.778-.536-.346 0-.661.004-.913.008h-.323c-.84.043-1.67.067-2.474.067-2.533 0-4.884-.217-6.995-.638-1.757-.355-2.982-.78-3.715-1.032-.094-.036-.185-.067-.263-.095-1.643-.535-3.45-1.512-4.96-2.682-1.197-.93-2.757-2.41-3.41-4.18a7.823 7.823 0 0 1-.666-3.855 6.599 6.599 0 0 1 1.808-4.022 6.61 6.61 0 0 1 2.536-1.674 7.453 7.453 0 0 1 2.545-.43c1.867 0 3.312.607 3.371.635l1.269.544-1.335.354c-4.695 1.249-5.306 3.088-5.613 4.096-.26 1.804.508 3.278 2.343 4.499l.02.015c2.218 1.643 5.948 2.427 8.705 2.608h.012c.512.047 1.15.075 1.886.075 2.635 0 6-.304 6.98-.509.937-.192 2.958-.354 4.431-.468.614-.051 1.142-.09 1.43-.122.173-.02.35-.028.528-.028.252 0 1.295.028 1.859.457.602-.295 1.879-.815 3.269-.815.161 0 .323.008.48.02h.028c1.304.2 2.485.956 2.635 1.059l.016-.008.02-.008c.074-.035.145-.102.244-.193.35-.319.83-.76 2.304-.878.095-.008.189-.012.284-.012 1.473 0 2.516.894 2.914 1.296.075-.043.19-.118.347-.26.658-.642 1.378-.725 1.93-.725.3 0 .599.028.922.055.173.016.425.04.716.063 1.399.122 3.998.35 5.093.556.867.165 3.36.39 5.786.39.958 0 1.785-.04 2.454-.11h.008c1.741-.15 6.066-.713 8.65-2.71l.02-.016c1.82-1.257 2.56-2.742 2.264-4.538-.33-1.008-.973-2.832-5.683-3.998l-1.344-.33 1.265-.564c.063-.031 1.571-.693 3.505-.693.883 0 1.722.142 2.49.414.93.334 1.768.874 2.485 1.599.555.563 1 1.209 1.32 1.914.291.646.476 1.343.555 2.072a7.968 7.968 0 0 1-.595 3.872c-.622 1.784-2.115 3.285-3.253 4.226-1.454 1.201-3.214 2.214-4.83 2.777-.05.02-.102.035-.16.059-.745.272-1.998.725-3.821 1.107-2.194.457-4.66.689-7.334.689-.528 0-1.072-.008-1.615-.028-.599.004-3.569.071-5.696.812-.74.256-1.662.39-2.741.39-.493 0-.934-.028-1.269-.06a1.32 1.32 0 0 1-.063.36l-.074.235c.09.048.145.095.18.138.296.264.674.757.529 2.025-.08.874-.252 1.422-.379 1.824-.094.299-.153.496-.141.693l.05.78-.578-.248c.063.137.102.307.106.516.016.575-.082 1.658-.398 2.288-.2.398-.547.69-.8.867.009.082.017.177.02.271.032.532-.02.82-.18 1.009-.162.2-.36.323-.536.393 0 .071-.008.146-.016.225-.051.595-.122.784-.236.914-.123.145-.426.378-.899.693-.031.441-.15 2.1-.177 2.824l-.11 3.049-.012.295-.272.122c-.405.181-.846.441-.941.564-.051.141-.06.645-.016 1.059l.051.512-.512.008s-1.61.035-2.642.544l-.615.303.012-.008Z"/><path fill="#F5E706" d="M46.315 29.99a.57.57 0 0 0-.031.185l.031-.023.079-.067.094-.044c.182-.079.386-.118.607-.118h.079l.04-.126h-.009c-.098.016-.193.028-.283.04-.426.063-.571.13-.61.153m.255 4.565c-.15.201-.3.489-.28.847v.016l.457-.469-.18-.394h.003ZM38.69 47.518a3.676 3.676 0 0 1 1.847 1.662c.02.04.043.075.059.114.303-.07.599-.122.87-.165.032-.3.095-.544.193-.749l.008-.015c.181-.363.505-.658 1.072-.985.023-.678.067-1.796.086-2.348.032-.842.17-2.765.185-2.99a1.5 1.5 0 0 1 .63-1.098l.044-.032c.177-.118.33-.224.449-.31a6.8 6.8 0 0 0 .035-.576l.044-1.107.638-.031c-.008-.067-.016-.134-.028-.201l-.122-.847.752-.394c.123-.067.327-.232.37-.315.02-.043.044-.106.068-.189-.536-.126-1.02-.595-1.064-1.465-.078-1.473 1.056-2.328 1.186-2.422l.795-.572.083.08c.04-.194.071-.418.095-.678v-.028c.023-.181.027-.315.023-.413-.256.157-.528.24-.803.24-.48 0-.914-.248-1.166-.666-.339-.563-.24-1.296-.008-1.737l.008-.016c.224-.405.603-.618 1.036-.744l-.63-1.32 2.26.355s.741.11 1.655.11 1.627-.098 2.186-.291c2.328-.816 5.372-.902 6.247-.91h.051c.528.02 1.056.027 1.568.027 5.928 0 9.189-1.185 10.58-1.693a1.63 1.63 0 0 1 .16-.06h.016c1.434-.504 3.01-1.41 4.317-2.489 1.383-1.142 2.356-2.383 2.742-3.497l.016-.044.015-.039c.701-1.635.883-4.195-.925-6.023a4.876 4.876 0 0 0-2.206-1.307c.209.153.406.311.587.476 1.032.934 1.445 1.903 1.713 2.73l.028.087.016.086c.189 1.107.086 2.163-.308 3.132-.468 1.166-1.355 2.201-2.63 3.088-1.28.98-3.026 1.76-5.18 2.312a27.499 27.499 0 0 1-4.317.724c-.729.075-1.611.119-2.623.119-2.32 0-5.026-.217-6.098-.422-1.012-.189-3.56-.413-4.927-.532-.296-.027-.548-.047-.725-.063-.283-.023-.547-.047-.772-.047-.43 0-.59.079-.76.248l-.047.044c-.359.315-.91.74-1.556.74-.394 0-.768-.161-1.012-.445l-.024-.027c-.024-.028-.768-.875-1.792-.875-.052 0-.103 0-.154.004-.894.071-1.08.24-1.296.441-.145.138-.33.303-.598.441-.154.087-.446.252-.836.252-.449 0-.76-.212-.917-.319-.079-.05-.997-.638-1.918-.787a3.428 3.428 0 0 0-.288-.012c-1.418 0-2.773.768-2.789.776l-1.39.811-.288-1.162a3.288 3.288 0 0 0-1.008-.047c-.307.031-.85.079-1.477.126-1.43.11-3.387.268-4.226.441-1.032.217-4.483.544-7.323.544-.783 0-1.465-.024-2.024-.075-.898-.06-2.69-.24-4.664-.756-2.008-.528-3.655-1.253-4.888-2.167-1.292-.862-2.194-1.886-2.682-3.044-.41-.961-.528-2.013-.362-3.124l.015-.087.028-.082c.256-.831.65-1.808 1.666-2.761.181-.17.374-.335.583-.493a4.9 4.9 0 0 0-2.186 1.347c-1.776 1.871-1.552 4.42-.82 6.038l.02.044.016.043c.398 1.095 1.418 2.316 2.868 3.447 1.359 1.051 2.981 1.934 4.447 2.414h.015c.087.036.178.067.28.102 1.477.513 4.545 1.58 10.154 1.58.776 0 1.58-.02 2.399-.063h.051c.095 0 .205 0 .323-.004.26 0 .583-.008.938-.008 2.312 0 4.045.205 5.305.619 1.485.484 3.183.508 3.51.508h.043l.607-.008.37.48c.209.276.24.532.268.78.027.24.066.65.11 1.21.079.964-.355 1.815-1.186 2.355.083.35.146.693.197.969.012.063.024.134.04.2.137.17.236.335.31.47l.036.066c.044.036.114.09.17.13l1.926 1.355-1.623.567c.04.63.122.973.181 1.143.421.165 1.103.52 1.41 1.394l.06.17.007.177c.02.512.063 1.063.102 1.477.402.271.662.602.784.772.374.484.493 1.024.548 1.39l.008.071c.004.043.016.165.027.311.02.225.048.532.06.646v.028c.023.283.007.638-.012 1.09-.02.442-.044.938-.032 1.423.012.425.051.843.095 1.165m.114 5.16-.166-1.717a1.844 1.844 0 0 0-.228-.638 1.3 1.3 0 0 0-.977-.658l-.827-.13-.17-.823a14.468 14.468 0 0 1-.255-2.296c-.016-.572.011-1.139.035-1.596.016-.315.028-.642.02-.78-.016-.133-.04-.417-.06-.65v-.019a6.647 6.647 0 0 1-.023-.24c-.032-.181-.06-.24-.067-.248l-.051-.06-.028-.047a.754.754 0 0 0-.153-.145l-.879-.154-.098-.902a45.766 45.766 0 0 1-.158-1.918c-.02-.012-.05-.02-.078-.032-.225-.079-.536-.193-.788-.5v-.008c-.118-.138-.355-.425-.544-1.044-.185-.614-.283-1.434-.295-2.446-.063-.086-.114-.177-.162-.256a1.106 1.106 0 0 0-.063-.106l-.18-.114-.15-.3c-.115-.228-.158-.46-.245-.925-.051-.288-.118-.65-.205-.985l-.008-.04a4.866 4.866 0 0 0-.196-.633l-.556-1.407 1.477-.228c.06-.016.22-.06.35-.142.084-.051.1-.083.1-.083v-.059l-.024-.28c-.87-.062-2.088-.212-3.234-.586h-.008c-1.008-.339-2.497-.5-4.545-.5-.34 0-.654.003-.906.007h-.308c-.846.044-1.69.067-2.493.067-2.58 0-4.982-.22-7.137-.653-1.808-.363-3.06-.8-3.809-1.06h-.011c-.087-.036-.17-.063-.249-.09-1.717-.564-3.604-1.58-5.171-2.797-1.265-.985-2.923-2.556-3.64-4.483a8.587 8.587 0 0 1-.717-4.194 7.341 7.341 0 0 1 2.005-4.463 7.325 7.325 0 0 1 2.816-1.855 8.127 8.127 0 0 1 2.797-.473c1.977 0 3.49.619 3.655.69l4.045 1.543-4.206.733c-4.262 1.134-4.821 2.682-5.085 3.549-.197 1.493.449 2.678 2.032 3.73l.051.035c2.088 1.548 5.664 2.293 8.32 2.47h.027c.492.047 1.107.07 1.823.07 2.553 0 5.905-.298 6.834-.491.985-.205 3.03-.367 4.522-.485.607-.047 1.13-.086 1.402-.122.197-.02.402-.031.607-.031.374 0 1.213.039 1.902.366.748-.323 1.934-.725 3.23-.725.181 0 .366.008.547.024l.071.008c1.005.153 1.922.587 2.462.886.181-.154.418-.335.756-.497.485-.232 1.084-.374 1.828-.429.11-.008.228-.016.343-.016 1.303 0 2.32.587 2.942 1.076.803-.678 1.662-.76 2.253-.76.327 0 .646.027.985.059h.008l.712.063c1.41.122 4.034.35 5.164.563.84.158 3.27.378 5.648.378.934 0 1.733-.035 2.38-.106h.027c1.674-.146 5.833-.682 8.264-2.56l.05-.036c1.569-1.083 2.195-2.28 1.97-3.766-.283-.862-.874-2.402-5.152-3.458l-3.407-.843 3.202-1.433c.174-.08 1.753-.757 3.805-.757a8.02 8.02 0 0 1 2.738.461 7.328 7.328 0 0 1 2.76 1.777 7.383 7.383 0 0 1 1.466 2.127c.327.716.532 1.488.618 2.296a8.622 8.622 0 0 1-.638 4.21c-.685 1.938-2.264 3.53-3.47 4.526-1.52 1.257-3.36 2.312-5.053 2.903-.047.016-.095.035-.146.055h-.008c-.764.28-2.044.749-3.923 1.139-2.245.468-4.762.704-7.484.704-.531 0-1.075-.007-1.622-.027-.591.004-3.439.07-5.448.776-.819.284-1.82.425-2.981.425h-.252c.283.528.382 1.202.283 2.04a8.512 8.512 0 0 1-.41 1.97c-.058.19-.114.366-.11.425l.138 1.978-.571-.248c-.043.622-.17 1.414-.46 1.985v.008a3.089 3.089 0 0 1-.694.862c.02.504-.016 1.012-.35 1.41a1.929 1.929 0 0 1-.402.378c-.056.528-.146.879-.398 1.166-.099.118-.28.292-.749.623-.043.673-.126 1.867-.15 2.45-.027.74-.09 2.505-.11 3.024l-.027.777-.69.307a4.832 4.832 0 0 0-.547.287c-.004.158 0 .378.02.595l.126 1.3-1.304.023c-.406.008-1.61.11-2.336.47l-1.563.767-.008-.008Z"/><path fill="#E63530" d="M18.791 32.046c-.024-12.03 9.705-21.805 21.734-21.825 12.03-.027 21.806 9.71 21.83 21.738.023 12.033-9.714 21.798-21.743 21.825-12.03.028-21.797-9.705-21.82-21.734"/><path fill="#F6EC1B" d="M40.568 11.12h-.043a20.732 20.732 0 0 0-14.75 6.148 20.753 20.753 0 0 0-6.086 14.778c.02 11.49 9.386 20.84 20.871 20.84h.048c11.513-.023 20.864-9.41 20.844-20.919-.024-11.49-9.39-20.84-20.884-20.84M40.56 54.69c-12.478 0-22.652-10.154-22.675-22.636-.016-6.058 2.336-11.761 6.61-16.055 4.277-4.293 9.964-6.664 16.026-6.676h.044c12.482 0 22.66 10.154 22.683 22.636.024 12.506-10.134 22.704-22.64 22.727h-.051l.003.004Z"/><path fill="#EA2F41" d="M18.791 32.046c-.024-12.03 9.705-21.805 21.734-21.825 12.03-.027 21.806 9.71 21.83 21.738.023 12.033-9.714 21.798-21.743 21.825-12.03.028-21.797-9.705-21.82-21.734"/><path fill="#211E1F" d="m55.906 17.72 14.373-1.205-15.125.249.752.957Z"/><path fill="#fff" d="M39.214 12.005c11.662 0 21.12 9.454 21.12 21.116 0 4.88-1.659 9.367-4.44 12.943a20.816 20.816 0 0 0 5.64-14.274c0-11.544-9.358-20.903-20.903-20.903a20.82 20.82 0 0 0-13.305 4.782 21.012 21.012 0 0 1 11.888-3.664Z"/><path fill="#211E1F" d="m55.52 16.7 9.536-11.442-10.13 10.8.594.643ZM54.075 15.389c-1.08-.985-11.226-9.107-11.226-9.107s9.902 8.788 10.844 9.784l.386-.677h-.004Z"/><path fill="#211E1F" d="m54.106 0 .138 15.625 1.264.485L54.106 0Z"/><path fill="#fff" d="m54.142 1.808-.197 13.73L43.42 6.772l9.359 9.61-14.338.434 14.338.685-6.952 7.984 7.724-7.381.772 14.506.346-14.424 7.295 6.614-6.44-7.386 14.243-.898-14.33-.133 8.051-9.454-8.52 8.725-.826-13.845Z"/><path fill="#211E1F" d="M32.904 29.072s.023.032.13 1.344c.106 1.311-1.45 1.567-1.45 1.567s.178.441.256.835c.185.733.276 1.509.35 1.654.225.142.367.512.501.674.134.165.417.362.417.362l-.24.08c0 2.28.438 2.768.571 2.934.134.161.879.169 1.119.85.043 1.052.17 2.234.17 2.234.575.106.94.681.94.681.194.233.28.528.332.855.008.118.067.776.078.96.044.454-.07 1.462-.043 2.45.028 1.092.233 2.092.233 2.092 1.996.312 2.213 2.352 2.213 2.352 1.142-.552 2.852-.587 2.852-.587s-.099-.989.067-1.324c.161-.334 1.166-.78 1.166-.78s.078-2.197.114-3.052c.035-.855.189-2.95.189-2.95s0-.114.13-.205c.291-.197.784-.536.87-.658.126-.126.162-1.19.162-1.19s.394-.035.626-.338c.166-.177.016-1.225.016-1.225s.626-.323.886-.835.363-1.477.343-2.06c-.008-.583-.343-.547-.5-.508-.048.26-.666 1.154-.713.3-.044-.852.681-1.375.681-1.375.303.275.953.555.953.555-.035-.63.386-1.075.524-2.596.154-1.339-.346-1.575-.41-1.662-.063-.083-.756-.307-1.264-.027-.52.476-.555-.197-.417-.457.145-.264 1.473-.343 1.473-.343.118-.394-.051-.76-.051-.76s2.583.401 4.423-.237c1.985-.693 4.687-.83 5.853-.842"/><path fill="#fff" d="M40.809 22.152s1.004-1.154 2.694-1.13c1.942.039 3.084 1.3 3.084 1.3s1.06-.899 1.52-.883c.461.02.35-.217 3.707.138 1.563.17 3.399.327 5.033.634.292.055 5.25.307 6.11.157.602-.11 3.844-.452 4.588-.634 4.68-1.166 6.255-3.28 6.255-3.28s1.544-1.28.93-3.636c-.82-3.1-6.893-4.1-6.893-4.1s7.074-4.026 10.8 2.359c.319.54.473 1.166.65 1.922.236.985.126 2.564-.422 4.207-1.142 3.477-4.809 5.4-5.864 6.002-4.195 2.38-9.97 2.742-10.308 2.805-.705.141-5.621.094-5.912.106a21.427 21.427 0 0 0-3.384.441c-.989.22-1.733.497-2.178.603-1.087.24-2.789.146-3.198.094 0 .04-.02.268-.15.63 1.052.619.701 2.309.701 2.309s-.126 1.166-.457 1.989c-.118.291.016 1.103.016 1.103s-.63-.288-.607-.256c.296.508 0 2.048-.027 2.1-.075.373-.22 1.086-1.04 1.606-.008.008.087.788-.04 1.075-.122.359-.61.595-.65.6-.027.736-.169 1.015-.196 1.07-.083.178-.953.76-.953.76s-.308 6.09-.304 6.177c-.027.027-1.087.453-1.225.728-.09.556.103 1.52.052 1.52-1.363-.035-2.785.284-3.73.832-.032-2.647-2.112-2.6-2.222-2.64-.3-1.098-.256-2.855-.295-2.957-.044-.103.326-2.946-.383-3.687-.074-.087-.397-.41-.878-.398-.13-.354-.181-2.135-.244-2.595-.138-.276-1.036-.398-1.072-.713-.212-.154-.582-.902-.59-3.171-.193-.217-.347-.548-.441-.642-.048-.055-.103-.067-.123-.095-.208-.22-.393-2.123-.901-3.131-.04-.067.035-.02.157-.04 1.646-.232 1.45-1.122 1.45-1.122s-.056-.977-.063-.98c-.008-.009-1.8-.162-2.06-.19-.576-.063-1.765-.468-2.762-.689-1.524-.343-4.53-.248-4.53-.248s-3.123.165-4.793.047c-2.769-.114-4.754-.579-5.29-.654-2.146-.3-5.246-1.725-5.486-1.8-1.15-.39-3.837-2.442-4.337-2.91-1.725-1.616-2.32-3.392-2.32-3.392s-.827-1.843-.579-3.943c.638-4.08 3.939-5.238 4.321-5.384 3.584-1.272 6.932.674 7.05.705-.11.162-6.223 1.04-6.833 4.64-.032.292-.509 2.352 2.225 4.27.418.291 3.198 2.253 8.61 2.698.93.185 7.196 0 8.315-.327.362-.107 7.098-.772 7.732-.717.524.04 1.221.303 1.316.477 1.575-.792 2.465-.84 3.009-.855 2.013-.036 3.419 1.099 3.419 1.099"/><path fill="#211E1F" d="M77.191 11.797c-3.269-3.317-7.944-1.225-7.944-1.225 4.793 1.185 5.616 3.06 6.034 4.348.264 1.532-.071 3.396-2.458 5.046-2.454 1.894-6.483 2.595-8.902 2.804-2.666.284-7.074-.043-8.377-.287-1.3-.245-4.786-.524-5.767-.615-.977-.086-1.772-.153-2.485.544-.686.606-.863.402-.863.402s-1.174-1.446-2.97-1.304c-1.804.138-1.879.78-2.379 1.024-.244.146-.287.138-.492-.008-.209-.138-1.3-.811-2.454-.989-1.95-.177-3.832.922-3.832.922-.107-.425-1.233-.662-2.21-.555-.973.106-4.514.315-5.814.583-1.296.271-6.341.689-9.008.445-2.426-.162-6.467-.855-8.957-2.702C5.9 18.619 5.537 16.764 5.77 15.23c.398-1.296 1.186-3.182 5.955-4.45 0 0-4.714-2.013-7.924 1.358-2.123 2.234-1.997 5.27-1.044 7.366 1.036 2.848 4.967 5.577 8.074 6.594 1.501.508 5.48 2.075 13.282 1.677 1.17-.011 4.183-.114 6.18.548 1.851.603 3.95.567 3.95.567s.028.036.135 1.351c.102 1.312-1.45 1.564-1.45 1.564s.173.441.256.827c.181.74.28 1.512.355 1.658.228.146.366.512.5.678.134.161.417.358.417.358l-.236.083c0 2.28.433 2.769.567 2.934.13.162.882.17 1.119.851.043 1.056.17 2.237.17 2.237.578.103.944.674.944.674.197.236.28.535.331.862.008.115.067.772.087.961.035.45-.075 1.458-.051 2.45.027 1.084.232 2.084.232 2.084 2.001.311 2.218 2.355 2.218 2.355 1.138-.559 2.84-.59 2.84-.59s-.095-.993.066-1.324c.17-.33 1.174-.776 1.174-.776l.11-3.048c.032-.859.186-2.954.186-2.954s.007-.115.134-.21c.291-.188.776-.531.87-.653.118-.126.161-1.19.161-1.19s.39-.031.623-.334c.173-.178.02-1.221.02-1.221s.622-.327.882-.835c.26-.516.362-1.485.346-2.064-.015-.58-.35-.548-.508-.508-.043.263-.665 1.154-.709.303-.047-.851.686-1.375.686-1.375.3.276.953.555.953.555-.043-.63.382-1.075.52-2.6.154-1.338-.347-1.575-.41-1.653-.067-.087-.76-.308-1.264-.032-.528.477-.56-.197-.418-.465.142-.256 1.474-.338 1.474-.338.122-.394-.052-.76-.052-.76s2.584.405 4.42-.233c1.989-.697 4.69-.831 5.86-.843 7.425.244 11.234-1.245 12.762-1.8 3.088-1.075 6.81-3.872 7.803-6.727.906-2.12.989-5.16-1.178-7.35"/><path fill="#fff" d="M53.22 26.268c-.26-.296-.89-.812-1.304-.847l.165-1.5s-.894-.517-2.379-.899c-1.315-.382-1.315-.271-1.591-.141-.76.543-1.426.709-1.426.709s-1.158-1.367-2.753-1.49c-.835-.059-1.587.182-2.005.481-.496.359-.752.587-.752.587s-.201.24-.812-.016c-.634-.256-1.362-1.327-3.548-1.024-1.797.528-2.572 1.032-2.572 1.032s-.166-.74-1.26-.736c-1.096.008-2.333.047-2.597.102-.256.06-.7.303-.811.323-.114.016.339.957-.067 1.536-.22.335-.087.555-.52.544 0 0-.945-.016-1.012.705-.016.76 1.193 1.166 1.74-.339 0 0 .56 1.442 1.19 1.607.776.142 1.537-1.028 1.722-1.123 0 0-.828 1.485-.398 2.04.52.296 1.17.351 1.276.221.11-.134.46-.764.366-1.445 0 0 .465.366.725.027.256-.334.323-1.78.323-1.78s.315-.055.319.65c0 .701.024 1.24.024 1.24s-.43-.05-.48.225c-.052.276.038.445.038.445l.406-.043s.134.26-.402.563c0 0 .544 1.462.158 2.54-.402 1.222-1.213 1.395-1.213 1.395s.264 1.331.264 1.627c0 .303.468.685.579.965.17.276.315.516.315.516s-.52-1.017-.599-1.852c-.079-.83.678-1.114 1.678-1.398 0 0 .485-.02.72.09.245.111.6.241.6.241s.41.347.425.477c.02.13.154 1.09.138 1.35-.04.265-.35.39-.35.39s.192 1.895.173 2.17c-.016.277-.032.352-.032.352s-.17-.036-.264-.127c-.09-.086-.11-.015-.11-.015s-.107.646-.646.965c0 0-.15-.276-.276-.37-.13-.091-.35-.276-.933-1.328 0 0-.205-.335-.54-.276 0 0 .004 1.186.288 1.832.334.496.555.272.76.717.15.33.394.535.488 1.075.19.701.359 1.702.359 1.702s.854.638 1.063 1.067c.13.272.209.674.205 1.249 0 .015-.07 3.674.016 4.175.043.256.142.401.142.401s1.154.06 1.977 2.108l1.658-.359s-.016-.177.043-.449c.099-.453.453-.925.572-1.032.157-.137.724-.303.724-.303s.11.016.126-.185c0 0 .122-4.088.11-4.262l.099-1.457s.484-.284.922-.863c.28-.22.291-1.185.291-1.185l.555.07s.28.036.012-1.705c0 0 .35-.11.977-1.004l.09-1.02-1.516 1.398s-.709-.796-.728-.886c-.02-.095-.166-.406-.087-2.277l-.24-.3-.02-.145.2-.315s.292-1.371.477-1.592c.19-.224.851-.378 1.722-.102.93.347 1.122 1.611 1.122 1.611s.229-.161.237-1.296c.039-.425-.036-1.008-.036-1.008s-.02-.426-.59-.398c-.316.07-.454.366-.922.15-.406-.055-.465.035-.674-.65-.075-.721.756-1.076 1.312-1.225l.059-.461s-.71-.76-.768-1.186l.319-.02s-.71-1.551.063-2.422c0 0-.193 1.997.878 1.863l.3.87s.709.442.744.533c0 0 .39.059 1.11-.056.17-.264-.13-.338-.429-.5-.449-.236-.579-.7-.228-1.11 0 0 .43.63 1.229.957 1.24-.028 1.142-.375 1.142-.375l.13-.44s-.075-.485.146-.745l.744 1.185s.26-.169.39-.189c.13-.02.886-.15.886-.15s.119-.354-.15-.65"/><path fill="#211E1F" d="M40.486 25.204s0-1.398.027-1.5c.024-.107.119-.225.256-.213.134.02.24.272.24.272s-.121.768-.15.87a1.158 1.158 0 0 1-.373.572ZM40.553 33.444s-.209 2.49-.248 2.636c-.035.145.35.07.35.07s.446-.783.52-.89c.075-.114.067-.185-.039-.425-.11-.24-.583-1.387-.583-1.387M40.758 36.67l.33.016s-.173 1.611-.173 2.092c0 .484-.031 1.15-.031 1.15h-.26s-.303-1.15-.303-1.217c0-.075.421-1.06.421-1.06l.012-.98h.004ZM40.371 41.082s.3-.095.37-.075c.072.02.111.075.111.075v1.67s.067.366.138.46c.079.095.41.221.484.422.08.205.21.961.044 1.56-.22.925-.568 1.095-.528 1.48.035.395.264 1.076.264 1.316 0 0-.13.166-.48.075-.111-.13-.351-.11-.351-.11s.161-1.04.067-1.572c-.06-.445-.556-.2-.556-.2l-.011-2.45s-.095-.205.2-.35c.296-.15.39-.17.39-.17l-.138-2.131h-.004Z"/><path fill="#EA2F41" d="M41.825 27.012s.394-.358.402-.417c.008-.063-.193-.394-.532-.54-.339-.15-.52-.027-.52-.027s-.504.89-.76.992c-.524-.173-.859-.599-1.17-.93-.311-.33-1.3-1.362-1.3-1.362l-.126-.075s.016.492.047 1.099c.016.311.068.693.091 1.004.04.556.051 1.005.067 1.032.043.067.662.693.662.693s.07.08 0 .119c-.063.039-.496.54-.827.57-.367.075-.686-.035-.737-.074l.024.228s.303.957.413 1.1c.114.145.154.023.252.141.197.102.19.571.19.571l1.571-.09.473-1.186s.5-.055.587-.083c.086-.023.598-.059.693-.047.098.008.232.307.33.362.044.036.194-.047.312-.137.122-.083.945-.446 1.154-.477.114-.051 1.095-1.58 1.536-1.914 0 0-.63.106-1.048.212-.421.103-1.292.095-1.378.083-.217-.02-.512-.087-.512-.087s.015-.366.094-.76"/><path fill="#fff" d="M36.287 35.69s.46-.099.327-.65c-.24-.516-.701-.367-.811.02-.11.39.13.724.484.63ZM44.996 34.63s-.45.094-.166.76c.335.24.666-.094.615-.28-.02-.188-.035-.429-.45-.48ZM14.434 22.963s3.734 1.395 13.07.016c0 0 .29 2.91-2.73 3.257-2.576.311-5.451-.638-6.082-.878-1.45-.492-3.935-1.666-4.258-2.39M62.346 25.22c-.642.225-3.537 1.119-6.105.756-3.01-.405-2.659-3.308-2.659-3.308 9.308 1.567 13.065.252 13.065.252-.338.713-2.847 1.835-4.3 2.3Z"/></svg>